<svg height="512pt" viewBox="-53 0 512 512" width="512pt" xmlns="http://www.w3.org/2000/svg"><g fill-rule="evenodd"><path d="m353.101562 52.964844h35.3125c9.738282.03125 17.625 7.917968 17.65625 17.65625v423.722656c-.03125 9.738281-7.917968 17.628906-17.65625 17.65625h-317.792968c-9.738282-.027344-17.625-7.917969-17.65625-17.65625v-35.308594zm0 0" fill="#a9b0bb"/><path d="m353.101562 17.65625v423.722656c-.027343 9.738282-7.914062 17.625-17.652343 17.65625h-317.792969c-9.738281-.03125-17.6289062-7.917968-17.65625-17.65625v-353.101562l88.277344-88.277344h247.171875c9.738281.0273438 17.625 7.917969 17.652343 17.65625zm0 0" fill="#e4e8eb"/><path d="m88.277344 0v70.621094c-.03125 9.738281-7.917969 17.625-17.65625 17.65625h-70.621094zm0 0" fill="#5e8faa"/><path d="m293.898438 271.007812-22.828126-23.128906c-1.648437-1.671875-3.894531-2.613281-6.242187-2.613281s-4.59375.941406-6.242187 2.613281l-22.828126 23.128906c-2.535156 2.535157-6.351562 3.285157-9.65625 1.898438-3.304687-1.386719-5.445312-4.636719-5.410156-8.21875l-.003906-264.6875h88.277344v264.6875c.03125 3.582031-2.105469 6.832031-5.410156 8.21875-3.308594 1.386719-7.121094.636719-9.65625-1.898438zm0 0" fill="#eb5463"/><g fill="#365972"><path d="m176.550781 158.898438h-123.585937c-4.875 0-8.828125-3.953126-8.828125-8.828126s3.953125-8.828124 8.828125-8.828124h123.585937c4.875 0 8.828125 3.953124 8.828125 8.828124s-3.953125 8.828126-8.828125 8.828126zm0 0"/><path d="m300.136719 335.449219h-247.171875c-4.875 0-8.828125-3.953125-8.828125-8.828125s3.953125-8.828125 8.828125-8.828125h247.171875c4.875 0 8.828125 3.953125 8.828125 8.828125s-3.953125 8.828125-8.828125 8.828125zm0 0"/><path d="m176.550781 203.035156h-123.585937c-4.875 0-8.828125-3.953125-8.828125-8.828125s3.953125-8.828125 8.828125-8.828125h123.585937c4.875 0 8.828125 3.953125 8.828125 8.828125s-3.953125 8.828125-8.828125 8.828125zm0 0"/><path d="m158.898438 379.585938h-8.828126c-4.875 0-8.828124-3.953126-8.828124-8.828126s3.953124-8.828124 8.828124-8.828124h8.828126c4.875 0 8.824218 3.953124 8.824218 8.828124s-3.949218 8.828126-8.824218 8.828126zm0 0"/><path d="m105.929688 379.585938h-52.964844c-4.875 0-8.828125-3.953126-8.828125-8.828126s3.953125-8.828124 8.828125-8.828124h52.964844c4.875 0 8.828124 3.953124 8.828124 8.828124s-3.953124 8.828126-8.828124 8.828126zm0 0"/><path d="m105.929688 247.171875h-52.964844c-4.875 0-8.828125-3.953125-8.828125-8.828125s3.953125-8.828125 8.828125-8.828125h52.964844c4.875 0 8.828124 3.953125 8.828124 8.828125s-3.953124 8.828125-8.828124 8.828125zm0 0"/><path d="m176.550781 247.171875h-26.480469c-4.875 0-8.828124-3.953125-8.828124-8.828125s3.953124-8.828125 8.828124-8.828125h26.480469c4.875 0 8.828125 3.953125 8.828125 8.828125s-3.953125 8.828125-8.828125 8.828125zm0 0"/><path d="m79.449219 291.308594h-26.484375c-4.875 0-8.828125-3.949219-8.828125-8.824219 0-4.878906 3.953125-8.828125 8.828125-8.828125h26.484375c4.875 0 8.828125 3.949219 8.828125 8.828125 0 4.875-3.953125 8.824219-8.828125 8.824219zm0 0"/><path d="m176.550781 291.308594h-52.964843c-4.875 0-8.828126-3.949219-8.828126-8.824219 0-4.878906 3.953126-8.828125 8.828126-8.828125h52.964843c4.875 0 8.828125 3.949219 8.828125 8.828125 0 4.875-3.953125 8.824219-8.828125 8.824219zm0 0"/></g><path d="m79.449219 459.035156v35.308594c.027343 9.738281 7.914062 17.628906 17.652343 17.65625h-26.480468c-9.738282-.027344-17.625-7.917969-17.65625-17.65625v-35.308594zm0 0" fill="#848f9e"/><path d="m88.277344 0v26.484375l-61.792969 61.792969h-26.484375zm0 0" fill="#457393"/><path d="m44.136719 459.035156h-26.480469c-9.738281-.03125-17.6289062-7.917968-17.65625-17.65625v-353.101562h26.484375v353.101562c.027344 9.738282 7.914063 17.625 17.652344 17.65625zm0 0" fill="#cad0d7"/><path d="m114.757812 0-26.480468 26.484375v-26.484375zm0 0" fill="#cad0d7"/><path d="m247.171875 0v259.441406l-11.386719 11.566406c-2.535156 2.558594-6.375 3.316407-9.695312 1.917969-3.320313-1.394531-5.457032-4.671875-5.398438-8.273437v-264.652344zm0 0" fill="#d94452"/></g></svg>