<svg height="512pt" viewBox="0 0 512 512.00246" width="512pt" xmlns="http://www.w3.org/2000/svg"><g fill-rule="evenodd"><path d="m353.105469 52.964844h35.308593c9.738282.03125 17.628907 7.917968 17.65625 17.65625v423.722656c-.027343 9.738281-7.917968 17.628906-17.65625 17.65625h-317.792968c-9.738282-.027344-17.625-7.917969-17.65625-17.65625v-35.308594zm0 0" fill="#a9b0bb"/><path d="m353.105469 17.65625v423.722656c-.03125 9.738282-7.917969 17.625-17.65625 17.65625h-317.792969c-9.738281-.03125-17.625-7.917968-17.65625-17.65625v-353.101562l88.277344-88.277344h247.171875c9.738281.0273438 17.625 7.917969 17.65625 17.65625zm0 0" fill="#e4e8eb"/><path d="m512 414.898438c0 53.625-43.472656 97.101562-97.101562 97.101562-53.628907 0-97.105469-43.476562-97.105469-97.101562 0-53.628907 43.476562-97.105469 97.105469-97.105469 53.628906 0 97.101562 43.476562 97.101562 97.105469zm0 0" fill="#46ceac"/><path d="m88.277344 0v70.621094c-.03125 9.738281-7.917969 17.625-17.65625 17.65625h-70.621094zm0 0" fill="#5e8faa"/><g fill="#365972"><path d="m300.140625 158.898438h-247.175781c-4.875 0-8.824219-3.953126-8.824219-8.828126s3.949219-8.828124 8.824219-8.828124h247.175781c4.875 0 8.824219 3.953124 8.824219 8.828124s-3.949219 8.828126-8.824219 8.828126zm0 0"/><path d="m300.140625 335.449219h-247.175781c-4.875 0-8.824219-3.953125-8.824219-8.828125s3.949219-8.828125 8.824219-8.828125h247.175781c4.875 0 8.824219 3.953125 8.824219 8.828125s-3.949219 8.828125-8.824219 8.828125zm0 0"/><path d="m300.140625 203.035156h-44.140625c-4.875 0-8.828125-3.953125-8.828125-8.828125s3.953125-8.828125 8.828125-8.828125h44.140625c4.875 0 8.824219 3.953125 8.824219 8.828125s-3.949219 8.828125-8.824219 8.828125zm0 0"/><path d="m211.863281 203.035156h-158.898437c-4.875 0-8.824219-3.953125-8.824219-8.828125s3.949219-8.828125 8.824219-8.828125h158.898437c4.875 0 8.828125 3.953125 8.828125 8.828125s-3.953125 8.828125-8.828125 8.828125zm0 0"/><path d="m158.898438 379.585938h-8.828126c-4.875 0-8.828124-3.953126-8.828124-8.828126s3.953124-8.828124 8.828124-8.828124h8.828126c4.875 0 8.828124 3.953124 8.828124 8.828124s-3.953124 8.828126-8.828124 8.828126zm0 0"/><path d="m105.933594 379.585938h-52.96875c-4.875 0-8.824219-3.953126-8.824219-8.828126s3.949219-8.828124 8.824219-8.828124h52.96875c4.875 0 8.828125 3.953124 8.828125 8.828124s-3.953125 8.828126-8.828125 8.828126zm0 0"/><path d="m97.105469 247.171875h-44.140625c-4.875 0-8.824219-3.953125-8.824219-8.828125s3.949219-8.828125 8.824219-8.828125h44.140625c4.875 0 8.828125 3.953125 8.828125 8.828125s-3.953125 8.828125-8.828125 8.828125zm0 0"/><path d="m300.140625 247.171875h-158.898437c-4.875 0-8.828126-3.953125-8.828126-8.828125s3.953126-8.828125 8.828126-8.828125h158.898437c4.875 0 8.824219 3.953125 8.824219 8.828125s-3.949219 8.828125-8.824219 8.828125zm0 0"/><path d="m79.449219 291.308594h-26.484375c-4.875 0-8.824219-3.949219-8.824219-8.824219 0-4.878906 3.949219-8.828125 8.824219-8.828125h26.484375c4.875 0 8.828125 3.949219 8.828125 8.828125 0 4.875-3.953125 8.824219-8.828125 8.824219zm0 0"/><path d="m229.519531 291.308594h-105.933593c-4.875 0-8.824219-3.949219-8.824219-8.824219 0-4.878906 3.949219-8.828125 8.824219-8.828125h105.933593c4.875 0 8.828125 3.949219 8.828125 8.828125 0 4.875-3.953125 8.824219-8.828125 8.824219zm0 0"/><path d="m300.140625 291.308594h-26.484375c-4.875 0-8.828125-3.949219-8.828125-8.824219 0-4.878906 3.953125-8.828125 8.828125-8.828125h26.484375c4.875 0 8.824219 3.949219 8.824219 8.828125 0 4.875-3.949219 8.824219-8.824219 8.824219zm0 0"/></g><path d="m395.273438 459.035156c-2.722657 0-5.292969-1.257812-6.964844-3.40625l-15.6875-20.183594c-2.019532-2.480468-2.539063-5.859374-1.355469-8.832031 1.183594-2.976562 3.882813-5.074219 7.054687-5.492187 3.171876-.414063 6.324219.917968 8.230469 3.484375l8.722657 11.210937 47.96875-61.660156c1.910156-2.566406 5.058593-3.902344 8.234374-3.484375 3.171876.414063 5.871094 2.515625 7.054688 5.488281 1.179688 2.976563.664062 6.355469-1.359375 8.835938l-54.933594 70.621094c-1.667969 2.152343-4.238281 3.414062-6.964843 3.417968zm0 0" fill="#f4f6f8"/><path d="m79.449219 459.035156v35.308594c.03125 9.738281 7.917969 17.628906 17.65625 17.65625h-26.484375c-9.738282-.027344-17.625-7.917969-17.65625-17.65625v-35.308594zm0 0" fill="#848f9e"/><path d="m88.277344 0v26.484375l-61.792969 61.792969h-26.484375zm0 0" fill="#457393"/><path d="m44.140625 459.035156h-26.484375c-9.738281-.03125-17.625-7.917968-17.65625-17.65625v-353.101562h26.484375v353.101562c.027344 9.738282 7.917969 17.625 17.65625 17.65625zm0 0" fill="#cad0d7"/><path d="m114.761719 0-26.484375 26.484375v-26.484375zm0 0" fill="#cad0d7"/><path d="m428.140625 511.027344c-4.382813.683594-8.808594 1.007812-13.242187.972656-53.628907 0-97.105469-43.476562-97.105469-97.101562 0-53.628907 43.476562-97.105469 97.105469-97.105469 4.433593-.035157 8.859374.289062 13.242187.972656-48.042969 6.589844-83.847656 47.636719-83.847656 96.132813 0 48.492187 35.804687 89.539062 83.847656 96.128906zm0 0" fill="#35ba9b"/></g></svg>