<svg height="512pt" viewBox="-27 0 512 512" width="512pt" xmlns="http://www.w3.org/2000/svg"><path d="m374.476562 102.914062v217.722657h-290.015624v-305.5625c0-8.320313 6.753906-15.074219 15.074218-15.074219h172.03125c2.171875 0 4.300782.472656 6.238282 1.355469 1.628906.746093 3.117187 1.769531 4.414062 3.054687l87.847656 87.851563c1.296875 1.285156 2.320313 2.78125 3.054688 4.410156.886718 1.941406 1.355468 4.070313 1.355468 6.242187zm0 0" fill="#e8f3ff"/><path d="m374.476562 102.914062v217.722657h-145.007812v-320.636719h42.097656c2.171875 0 4.300782.472656 6.238282 1.355469 1.628906.746093 3.117187 1.769531 4.414062 3.054687l87.847656 87.851563c1.296875 1.285156 2.320313 2.78125 3.054688 4.410156.886718 1.941406 1.355468 4.070313 1.355468 6.242187zm0 0" fill="#d1e9ff"/><path d="m373.121094 96.671875h-80.242188c-8.320312 0-15.074218-6.753906-15.074218-15.074219v-80.242187c1.628906.746093 3.117187 1.769531 4.414062 3.054687l87.847656 87.851563c1.296875 1.285156 2.320313 2.78125 3.054688 4.410156zm0 0" fill="#9ed0ff"/><path d="m458.941406 365.855469v131.070312c0 8.320313-6.753906 15.074219-15.074218 15.074219h-428.792969c-8.320313 0-15.074219-6.753906-15.074219-15.074219v-131.070312c0-8.320313 6.753906-15.074219 15.074219-15.074219h428.792969c8.320312 0 15.074218 6.753906 15.074218 15.074219zm0 0" fill="#00aa63"/><path d="m458.941406 365.855469v131.070312c0 8.320313-6.753906 15.074219-15.074218 15.074219h-214.398438v-161.21875h214.398438c8.320312 0 15.074218 6.753906 15.074218 15.074219zm0 0" fill="#087"/><path d="m244.535156 193.886719c0 14.621093-5.488281 28.679687-15.066406 39.421875-4.65625 5.246094-8.519531 7.863281-12.78125 10.996094-6.710938 4.933593-16.148438 3.484374-21.074219-3.226563-4.921875-6.714844-3.476562-16.148437 3.226563-21.074219 8.363281-6.128906 15.546875-12.90625 15.546875-26.117187 0-8.332031 6.753906-15.074219 15.074219-15.074219h.007812c8.332031.011719 15.066406 6.742188 15.066406 15.074219zm0 0" fill="#00aa63"/><path d="m244.535156 193.886719c0 14.621093-5.488281 28.679687-15.066406 39.421875v-54.496094c8.332031.011719 15.066406 6.742188 15.066406 15.074219zm0 0" fill="#087"/><path d="m244.535156 145.066406v5.539063c0 8.320312-6.734375 15.0625-15.066406 15.074219h-.007812c-8.320313 0-15.074219-6.753907-15.074219-15.074219v-5.539063c0-8.328125 6.753906-15.070312 15.074219-15.070312h.007812c8.332031.007812 15.066406 6.742187 15.066406 15.070312zm0 0" fill="#00aa63"/><path d="m244.535156 145.066406v5.539063c0 8.320312-6.734375 15.0625-15.066406 15.074219v-35.683594c8.332031.007812 15.066406 6.742187 15.066406 15.070312zm0 0" fill="#087"/><path d="m127.566406 407.777344h27.234375c8.324219 0 15.074219-6.75 15.074219-15.074219s-6.75-15.070313-15.074219-15.070313h-27.234375c-23.332031 0-42.3125 18.980469-42.3125 42.308594v23.910156c0 23.328126 18.980469 42.308594 42.3125 42.308594h27.234375c8.324219 0 15.074219-6.75 15.074219-15.074218 0-8.324219-6.75-15.074219-15.074219-15.074219h-27.234375c-6.707031 0-12.164062-5.453125-12.164062-12.160157v-23.910156c0-6.707031 5.457031-12.164062 12.164062-12.164062zm0 0" fill="#fff"/><path d="m271.457031 451.496094c0 19.113281-15.546875 34.667968-34.671875 34.667968h-34.871094c-8.328124 0-15.070312-6.753906-15.070312-15.074218 0-8.332032 6.742188-15.074219 15.070312-15.074219h34.871094c2.503906 0 4.523438-2.027344 4.523438-4.519531 0-2.492188-2.019532-4.523438-4.523438-4.523438h-15.273437c-19.125 0-34.667969-15.554687-34.667969-34.667968 0-19.125 15.542969-34.671876 34.667969-34.671876h34.871093c8.328126 0 15.074219 6.742188 15.074219 15.074219 0 8.320313-6.746093 15.074219-15.074219 15.074219h-34.871093c-2.503907 0-4.523438 2.03125-4.523438 4.523438 0 2.492187 2.019531 4.519531 4.523438 4.519531h15.273437c19.125 0 34.671875 15.546875 34.671875 34.671875zm0 0" fill="#fff"/><g fill="#e8f3ff"><path d="m271.457031 451.496094c0 19.113281-15.546875 34.667968-34.671875 34.667968h-7.316406v-30.148437h7.316406c2.503906 0 4.523438-2.027344 4.523438-4.519531 0-2.492188-2.019532-4.523438-4.523438-4.523438h-7.316406v-30.148437h7.316406c19.125 0 34.671875 15.546875 34.671875 34.671875zm0 0"/><path d="m256.382812 407.78125h-26.914062v-30.148438h26.914062c8.328126 0 15.074219 6.742188 15.074219 15.074219 0 8.320313-6.746093 15.074219-15.074219 15.074219zm0 0"/><path d="m363.5625 378.464844c-7.867188-2.730469-16.457031 1.429687-19.1875 9.292968l-13 37.40625-13-37.40625c-2.730469-7.863281-11.324219-12.023437-19.183594-9.289062-7.863281 2.730469-12.023437 11.320312-9.292968 19.183594l27.238281 78.382812c4.671875 13.445313 23.789062 13.484375 28.476562 0l27.238281-78.382812c2.730469-7.863282-1.425781-16.453125-9.289062-19.1875zm0 0"/></g></svg>