<svg height="512pt" viewBox="-53 0 512 512" width="512pt" xmlns="http://www.w3.org/2000/svg"><g fill-rule="evenodd"><path d="m353.101562 52.964844h35.3125c9.738282.03125 17.625 7.917968 17.65625 17.65625v423.722656c-.03125 9.738281-7.917968 17.628906-17.65625 17.65625h-317.792968c-9.738282-.027344-17.625-7.917969-17.65625-17.65625v-35.308594zm0 0" fill="#a9b0bb"/><path d="m353.101562 17.65625v423.722656c-.027343 9.738282-7.914062 17.625-17.652343 17.65625h-317.792969c-9.738281-.03125-17.6289062-7.917968-17.65625-17.65625v-353.101562l88.277344-88.277344h247.171875c9.738281.0273438 17.625 7.917969 17.652343 17.65625zm0 0" fill="#e4e8eb"/><path d="m123.585938 158.898438h105.929687c9.753906 0 17.65625 7.902343 17.65625 17.652343v88.277344c0 9.75-7.902344 17.65625-17.65625 17.65625h-105.929687c-9.75 0-17.65625-7.90625-17.65625-17.65625v-88.277344c0-9.75 7.90625-17.652343 17.65625-17.652343zm0 0" fill="#fab153"/><path d="m194.207031 211.863281c0 9.75-7.90625 17.652344-17.65625 17.652344s-17.652343-7.902344-17.652343-17.652344 7.902343-17.65625 17.652343-17.65625 17.65625 7.90625 17.65625 17.65625zm0 0" fill="#f2a149"/><path d="m88.277344 0v70.621094c-.03125 9.738281-7.917969 17.625-17.65625 17.65625h-70.621094zm0 0" fill="#5e8faa"/><g fill="#365972"><path d="m300.136719 335.449219h-247.171875c-4.875 0-8.828125-3.953125-8.828125-8.828125s3.953125-8.828125 8.828125-8.828125h247.171875c4.875 0 8.828125 3.953125 8.828125 8.828125s-3.953125 8.828125-8.828125 8.828125zm0 0"/><path d="m158.898438 379.585938h-8.828126c-4.875 0-8.828124-3.953126-8.828124-8.828126s3.953124-8.828124 8.828124-8.828124h8.828126c4.875 0 8.824218 3.953124 8.824218 8.828124s-3.949218 8.828126-8.824218 8.828126zm0 0"/><path d="m105.929688 379.585938h-52.964844c-4.875 0-8.828125-3.953126-8.828125-8.828126s3.953125-8.828124 8.828125-8.828124h52.964844c4.875 0 8.828124 3.953124 8.828124 8.828124s-3.953124 8.828126-8.828124 8.828126zm0 0"/></g><path d="m176.550781 256c-4.875 0-8.828125-3.953125-8.828125-8.828125v-26.480469c0-4.878906 3.953125-8.828125 8.828125-8.828125s8.828125 3.949219 8.828125 8.828125v26.480469c0 4.875-3.953125 8.828125-8.828125 8.828125zm0 0" fill="#f2a149"/><path d="m220.691406 114.757812v44.140626h-17.65625v-44.140626c0-14.625-11.855468-26.480468-26.484375-26.480468-14.625 0-26.480469 11.855468-26.480469 26.480468v44.140626h-17.65625v-44.140626c0-24.375 19.761719-44.136718 44.136719-44.136718 24.378907 0 44.140625 19.761718 44.140625 44.136718zm0 0" fill="#a9b0bb"/><path d="m79.449219 459.035156v35.308594c.027343 9.738281 7.914062 17.628906 17.652343 17.65625h-26.480468c-9.738282-.027344-17.625-7.917969-17.65625-17.65625v-35.308594zm0 0" fill="#848f9e"/><path d="m88.277344 0v26.484375l-61.792969 61.792969h-26.484375zm0 0" fill="#457393"/><path d="m44.136719 459.035156h-26.480469c-9.738281-.03125-17.6289062-7.917968-17.65625-17.65625v-353.101562h26.484375v353.101562c.027344 9.738282 7.914063 17.625 17.652344 17.65625zm0 0" fill="#cad0d7"/><path d="m114.757812 0-26.480468 26.484375v-26.484375zm0 0" fill="#cad0d7"/><path d="m150.070312 282.484375h-26.484374c-9.738282-.03125-17.625-7.917969-17.65625-17.65625v-88.277344c.03125-9.738281 7.917968-17.625 17.65625-17.652343h26.484374c-9.738281.027343-17.628906 7.914062-17.65625 17.652343v88.277344c.027344 9.738281 7.917969 17.625 17.65625 17.65625zm0 0" fill="#f2a149"/></g></svg>