<svg height="512pt" viewBox="0 0 512 512" width="512pt" xmlns="http://www.w3.org/2000/svg"><g fill-rule="evenodd"><path d="m353.101562 52.964844h35.3125c9.738282.03125 17.625 7.917968 17.65625 17.65625v423.722656c-.03125 9.738281-7.917968 17.628906-17.65625 17.65625h-317.792968c-9.738282-.027344-17.625-7.917969-17.65625-17.65625v-35.308594zm0 0" fill="#a9b0bb"/><path d="m353.101562 17.65625v423.722656c-.027343 9.738282-7.914062 17.625-17.652343 17.65625h-317.792969c-9.738281-.03125-17.6289062-7.917968-17.65625-17.65625v-353.101562l88.277344-88.277344h247.171875c9.738281.0273438 17.625 7.917969 17.652343 17.65625zm0 0" fill="#e4e8eb"/><path d="m88.277344 0v70.621094c-.03125 9.738281-7.917969 17.625-17.65625 17.65625h-70.621094zm0 0" fill="#5e8faa"/><path d="m512 238.34375c0 14.628906-11.855469 26.484375-26.484375 26.484375h-126.9375c4.472656-17.371094 4.472656-35.59375 0-52.964844h126.9375c14.628906 0 26.484375 11.855469 26.484375 26.480469zm0 0" fill="#937661"/><path d="m361.929688 238.34375c.019531 8.9375-1.109376 17.835938-3.351563 26.484375-1.414063 5.457031-3.242187 10.800781-5.476563 15.976563-11.945312 27.253906-34.792968 48.234374-62.964843 57.820312-28.167969 9.585938-59.070313 6.894531-85.160157-7.414062-13.847656-7.625-25.816406-18.238282-35.046874-31.074219-2.363282-3.242188-4.515626-6.632813-6.441407-10.152344-1.238281-2.117187-2.296875-4.234375-3.355469-6.441406-1.535156-3.21875-2.890624-6.519531-4.0625-9.886719-3.011718-8.550781-4.910156-17.449219-5.648437-26.484375-.265625-2.914063-.351563-5.824219-.351563-8.828125 0-3 .085938-5.914062.351563-8.828125.738281-9.03125 2.636719-17.933594 5.648437-26.480469 1.171876-3.367187 2.527344-6.667968 4.0625-9.886718 1.058594-2.207032 2.117188-4.328126 3.355469-6.445313 1.925781-3.519531 4.078125-6.910156 6.441407-10.152344 9.230468-12.832031 21.199218-23.449219 35.046874-31.070312 32.824219-18.042969 72.730469-17.410157 104.964844 1.664062 32.234375 19.070313 52 53.746094 51.988282 91.199219zm0 0" fill="#66d4f1"/><path d="m300.136719 194.207031h-44.136719c-4.875 0-8.828125-3.953125-8.828125-8.828125s3.953125-8.828125 8.828125-8.828125h44.136719c4.875 0 8.828125 3.953125 8.828125 8.828125s-3.953125 8.828125-8.828125 8.828125zm0 0" fill="#3aadd9"/><path d="m220.691406 185.378906c0 4.875-3.953125 8.828125-8.828125 8.828125h-47.671875c-1.421875.015625-2.824218-.347656-4.058594-1.058593 2.730469-5.832032 6.011719-11.390626 9.796876-16.597657h41.933593c4.875 0 8.828125 3.953125 8.828125 8.828125zm0 0" fill="#3aadd9"/><path d="m158.898438 379.585938h-8.828126c-4.875 0-8.828124-3.953126-8.828124-8.828126s3.953124-8.828124 8.828124-8.828124h8.828126c4.875 0 8.824218 3.953124 8.824218 8.828124s-3.949218 8.828126-8.824218 8.828126zm0 0" fill="#365972"/><path d="m105.929688 379.585938h-52.964844c-4.875 0-8.828125-3.953126-8.828125-8.828126s3.953125-8.828124 8.828125-8.828124h52.964844c4.875 0 8.828124 3.953124 8.828124 8.828124s-3.953124 8.828126-8.828124 8.828126zm0 0" fill="#365972"/><path d="m97.101562 247.171875h-44.136718c-4.875 0-8.828125-3.953125-8.828125-8.828125s3.953125-8.828125 8.828125-8.828125h44.136718c4.878907 0 8.828126 3.953125 8.828126 8.828125s-3.949219 8.828125-8.828126 8.828125zm0 0" fill="#365972"/><path d="m308.964844 238.34375c0 4.875-3.953125 8.828125-8.828125 8.828125h-149.714844c-.265625-2.914063-.351563-5.824219-.351563-8.828125 0-3 .085938-5.914062.351563-8.828125h149.714844c4.875 0 8.828125 3.953125 8.828125 8.828125zm0 0" fill="#3aadd9"/><path d="m79.449219 291.308594h-26.484375c-4.875 0-8.828125-3.949219-8.828125-8.824219 0-4.878906 3.953125-8.828125 8.828125-8.828125h26.484375c4.875 0 8.828125 3.949219 8.828125 8.828125 0 4.875-3.953125 8.824219-8.828125 8.824219zm0 0" fill="#365972"/><path d="m44.136719 194.207031c0-4.875 3.953125-8.828125 8.828125-8.828125h105.933594c1.625-.023437 3.222656.4375 4.589843 1.324219-1.238281 2.117187-2.296875 4.238281-3.355469 6.445313-1.535156 3.21875-2.890624 6.519531-4.0625 9.886718h-103.105468c-4.875 0-8.828125-3.953125-8.828125-8.828125zm0 0" fill="#365972"/><path d="m160.132812 283.542969c1.058594 2.207031 2.117188 4.324219 3.355469 6.441406-1.367187.886719-2.964843 1.347656-4.589843 1.324219h-35.3125c-4.875 0-8.828126-3.949219-8.828126-8.824219 0-4.878906 3.953126-8.828125 8.828126-8.828125h32.484374c1.171876 3.367188 2.527344 6.667969 4.0625 9.886719zm0 0" fill="#365972"/><path d="m44.136719 150.070312c0-4.875 3.953125-8.828124 8.828125-8.828124h144.507812c3.074219-.019532 5.929688 1.59375 7.503906 4.238281-6.824218 3.765625-13.21875 8.265625-19.066406 13.417969h-132.945312c-4.875 0-8.828125-3.953126-8.828125-8.828126zm0 0" fill="#365972"/><path d="m185.910156 317.792969c5.847656 5.152343 12.242188 9.652343 19.066406 13.417969-1.574218 2.640624-4.429687 4.253906-7.503906 4.238281h-144.507812c-4.875 0-8.828125-3.953125-8.828125-8.828125s3.953125-8.828125 8.828125-8.828125zm0 0" fill="#365972"/><path d="m238.34375 291.308594c0 4.878906-3.949219 8.828125-8.828125 8.828125h-59.585937c-3.785157-5.207031-7.066407-10.761719-9.796876-16.59375 1.234376-.710938 2.636719-1.078125 4.058594-1.058594h65.324219c4.878906 0 8.828125 3.949219 8.828125 8.824219zm0 0" fill="#3aadd9"/><path d="m300.136719 300.136719h-26.480469c-4.875 0-8.828125-3.949219-8.828125-8.828125 0-4.875 3.953125-8.824219 8.828125-8.824219h26.480469c4.875 0 8.828125 3.949219 8.828125 8.824219 0 4.878906-3.953125 8.828125-8.828125 8.828125zm0 0" fill="#3aadd9"/></g><path d="m256 353.101562c-19.320312.011719-38.332031-4.847656-55.277344-14.121093-7.386718-4.089844-14.308594-8.972657-20.640625-14.558594-6.445312-5.710937-12.242187-12.117187-17.292969-19.09375-2.582031-3.542969-4.941406-7.246094-7.0625-11.085937-1.242187-2.128907-2.417968-4.460938-3.582031-6.878907-1.671875-3.535156-3.144531-7.160156-4.414062-10.855469-3.242188-9.226562-5.285157-18.832031-6.082031-28.578124-.308594-3.132813-.40625-6.308594-.40625-9.585938 0-3.273438.097656-6.453125.386718-9.636719.808594-9.773437 2.867188-19.398437 6.128906-28.648437 1.273438-3.636719 2.746094-7.203125 4.414063-10.679688 1.191406-2.472656 2.363281-4.804687 3.714844-7.125 2.082031-3.773437 4.394531-7.414062 6.929687-10.902344 10-13.878906 22.96875-25.359374 37.957032-33.605468 31.054687-17.152344 68.304687-18.953125 100.867187-4.875 32.566406 14.078125 56.773437 42.445312 65.550781 76.820312 4.847656 18.820313 4.847656 38.558594 0 57.378906-1.53125 5.890626-3.507812 11.65625-5.914062 17.25-18.324219 41.796876-59.640625 68.792969-105.277344 68.78125zm0-211.859374c-16.351562-.003907-32.445312 4.113281-46.785156 11.96875-12.707032 7-23.6875 16.746093-32.140625 28.53125-2.152344 2.945312-4.109375 6.027343-5.863281 9.226562-1.226563 2.089844-2.179688 4.007812-3.132813 6-1.386719 2.902344-2.609375 5.878906-3.664063 8.917969-2.777343 7.871093-4.53125 16.070312-5.207031 24.390625-.238281 2.699218-.320312 5.339844-.320312 8.066406 0 2.730469.082031 5.367188.320312 8.015625.664063 8.296875 2.402344 16.46875 5.164063 24.320313 1.074218 3.097656 2.320312 6.132812 3.734375 9.09375.925781 1.941406 1.878906 3.855468 2.992187 5.761718 1.785156 3.257813 3.777344 6.398438 5.964844 9.402344 8.457031 11.792969 19.441406 21.542969 32.152344 28.539062 23.917968 13.113282 52.246094 15.578126 78.066406 6.785157 25.824219-8.789063 46.765625-28.023438 57.71875-53.003907 2.042969-4.746093 3.71875-9.636718 5.015625-14.636718 4.097656-15.925782 4.097656-32.628906 0-48.550782-10.953125-42.949218-49.691406-72.960937-94.015625-72.828124zm0 0" fill="#a9b0bb"/><path d="m88.277344 0v26.484375l-61.792969 61.792969h-26.484375zm0 0" fill="#457393" fill-rule="evenodd"/><path d="m44.136719 459.035156h-26.480469c-9.738281-.03125-17.6289062-7.917968-17.65625-17.65625v-353.101562h26.484375v353.101562c.027344 9.738282 7.914063 17.625 17.652344 17.65625zm0 0" fill="#cad0d7" fill-rule="evenodd"/><path d="m114.757812 0-26.480468 26.484375v-26.484375zm0 0" fill="#cad0d7" fill-rule="evenodd"/><path d="m231.460938 331.210938c1.199218.6875 2.4375 1.308593 3.707031 1.855468-9.09375-1.867187-17.84375-5.113281-25.953125-9.625-6.273438-3.414062-12.136719-7.53125-17.480469-12.269531-5.464844-4.859375-10.378906-10.308594-14.652344-16.242187-2.183593-3-4.1875-6.125-6.003906-9.355469-1.058594-1.945313-2.03125-3.886719-3-5.828125-1.417969-2.953125-2.65625-5.992188-3.707031-9.09375-2.746094-7.835938-4.46875-15.996094-5.121094-24.273438-.472656-5.347656-.472656-10.722656 0-16.066406.65625-8.34375 2.410156-16.566406 5.207031-24.453125 1.015625-3.046875 2.226563-6.023437 3.621094-8.914063.96875-1.945312 1.941406-3.886718 3.175781-6.003906 1.734375-3.1875 3.683594-6.253906 5.828125-9.179687 4.273438-5.9375 9.1875-11.382813 14.652344-16.246094 5.34375-4.734375 11.207031-8.851563 17.480469-12.269531 8.109375-4.511719 16.859375-7.753906 25.953125-9.621094-1.269531.546875-2.507813 1.164062-3.707031 1.855469-13.847657 7.621093-25.820313 18.238281-35.046876 31.070312-2.363281 3.242188-4.515624 6.632813-6.445312 10.152344-1.234375 2.117187-2.292969 4.238281-3.355469 6.445313-1.53125 3.21875-2.886719 6.519531-4.058593 9.886718-3.011719 8.546875-4.910157 17.449219-5.648438 26.480469-.265625 2.914063-.355469 5.828125-.355469 8.828125 0 3.003906.089844 5.914062.355469 8.828125.738281 9.035156 2.636719 17.933594 5.648438 26.484375 1.171874 3.367188 2.527343 6.667969 4.058593 9.886719 1.0625 2.207031 2.121094 4.324219 3.355469 6.441406 1.929688 3.519531 4.082031 6.910156 6.445312 10.152344 9.226563 12.835937 21.199219 23.449219 35.046876 31.074219zm0 0" fill="#4fc0e8" fill-rule="evenodd"/><path d="m196.414062 300.136719h-15.183593c-1.5-1.675781-2.824219-3.441407-4.148438-5.207031-2.183593-3-4.1875-6.125-6.003906-9.355469-.527344-1.0625-1.058594-2.03125-1.589844-3.089844h16.683594c.109375.367187.257813.722656.441406 1.058594 1.0625 2.207031 2.121094 4.324219 3.355469 6.441406 1.929688 3.519531 4.082031 6.910156 6.445312 10.152344zm0 0" fill="#35a1c9" fill-rule="evenodd"/><path d="m176.550781 238.34375c0 3.003906.089844 5.914062.355469 8.828125h-17.566406c0-.265625-.089844-.527344-.089844-.792969-.472656-5.347656-.472656-10.722656 0-16.066406 0-.265625.089844-.53125.089844-.796875h17.566406c-.265625 2.914063-.355469 5.828125-.355469 8.828125zm0 0" fill="#35a1c9" fill-rule="evenodd"/><path d="m196.414062 176.550781c-2.363281 3.242188-4.515624 6.632813-6.445312 10.152344-1.234375 2.117187-2.292969 4.238281-3.355469 6.445313-.183593.335937-.332031.691406-.441406 1.058593h-16.683594c.53125-1.058593 1.148438-2.117187 1.765625-3.265625 1.734375-3.1875 3.683594-6.253906 5.828125-9.179687 1.324219-1.765625 2.648438-3.53125 4.148438-5.210938zm0 0" fill="#35a1c9" fill-rule="evenodd"/><path d="m79.449219 459.035156v35.308594c.027343 9.738281 7.914062 17.628906 17.652343 17.65625h-26.480468c-9.738282-.027344-17.625-7.917969-17.65625-17.65625v-35.308594zm0 0" fill="#848f9e" fill-rule="evenodd"/></svg>