<svg height="503pt" viewBox="0 0 503.75597 503" width="503pt" xmlns="http://www.w3.org/2000/svg"><g fill-rule="evenodd"><path d="m347.117188 52.445312h34.714843c9.570313.027344 17.324219 7.78125 17.355469 17.355469v416.542969c-.03125 9.574219-7.785156 17.328125-17.355469 17.355469h-312.410156c-9.570313-.027344-17.324219-7.78125-17.355469-17.355469v-34.710938zm0 0" fill="#a9b0bb"/><path d="m347.117188 17.734375v416.542969c-.027344 9.574218-7.78125 17.328125-17.355469 17.355468h-312.40625c-9.574219-.027343-17.3281252-7.78125-17.355469-17.355468v-347.121094l86.78125-86.777344h242.980469c9.574219.027344 17.328125 7.78125 17.355469 17.355469zm0 0" fill="#e4e8eb"/><path d="m86.78125.378906v69.421875c-.03125 9.574219-7.785156 17.328125-17.359375 17.355469h-69.421875zm0 0" fill="#5e8faa"/><path d="m463.664062 187.847656-6.335937 5.902344-159.066406 147.609375-22.5625-24.296875-12.84375-13.882812 165.402343-153.515626 12.84375 13.886719 16.660157 17.960938zm0 0" fill="#46ceac"/><path d="m298.261719 341.335938-56.753907 40.871093-11.28125-12.148437-12.324218-13.277344 22.390625-26.640625 12.84375-15.273437 9.71875-11.628907zm0 0" fill="#35ba9b"/><path d="m503.757812 139.226562c.011719 7.246094-3.011718 14.171876-8.332031 19.089844l-25.425781 23.605469-6.335938 5.898437-5.902343-6.332031-29.503907-31.847656 31.761719-29.507813c7.589844-7.039062 18.628907-8.910156 28.117188-4.769531s15.621093 13.511719 15.621093 23.863281zm0 0" fill="#35ba9b"/><path d="m241.507812 382.207031-1.5625 1.390625c-10.886718 10.351563-23.925781 18.175782-38.183593 22.910156v.085938c-.347657.085938-.78125.261719-1.128907.347656-2.058593.734375-4.316406.671875-6.332031-.175781-2.050781-.890625-3.652343-2.574219-4.4375-4.667969-.785156-2.09375-.6875-4.417968.269531-6.4375.609376-1.476562 1.214844-2.953125 1.910157-4.339844 5.90625-12.5 14.15625-23.753906 24.296875-33.148437l1.5625-1.390625 12.324218 13.277344zm0 0" fill="#457393"/><g fill="#365972"><path d="m194.300781 406.765625c-1.433593.980469-3.128906 1.496094-4.859375 1.476563h-85.304687c-4.792969 0-8.679688-3.886719-8.679688-8.679688 0-4.789062 3.886719-8.675781 8.679688-8.675781h85.304687c.882813.011719 1.761719.15625 2.601563.433593-.695313 1.386719-1.300781 2.863282-1.910157 4.339844-.957031 2.019532-1.054687 4.34375-.269531 6.4375.785157 2.09375 2.386719 3.777344 4.4375 4.667969zm0 0"/><path d="m253.136719 314.867188-12.84375 15.273437h-188.226563c-4.792968 0-8.675781-3.886719-8.675781-8.679687 0-4.789063 3.882813-8.675782 8.675781-8.675782h195.429688c2.066406 0 4.066406.738282 5.640625 2.082032zm0 0"/><path d="m69.421875 390.886719h-17.355469c-4.792968 0-8.675781 3.886719-8.675781 8.675781 0 4.792969 3.882813 8.679688 8.675781 8.679688h17.355469c4.792969 0 8.679687-3.886719 8.679687-8.679688 0-4.789062-3.886718-8.675781-8.679687-8.675781zm0 0"/><path d="m52.066406 156.582031h242.984375c4.792969 0 8.679688-3.886719 8.679688-8.679687 0-4.792969-3.886719-8.675782-8.679688-8.675782h-242.984375c-4.792968 0-8.675781 3.882813-8.675781 8.675782 0 4.792968 3.882813 8.679687 8.675781 8.679687zm0 0"/><path d="m295.050781 182.617188h-43.390625c-4.792968 0-8.675781 3.882812-8.675781 8.675781s3.882813 8.679687 8.675781 8.679687h43.390625c4.792969 0 8.679688-3.886718 8.679688-8.679687s-3.886719-8.675781-8.679688-8.675781zm0 0"/><path d="m52.066406 199.972656h156.203125c4.792969 0 8.679688-3.886718 8.679688-8.679687s-3.886719-8.675781-8.679688-8.675781h-156.203125c-4.792968 0-8.675781 3.882812-8.675781 8.675781s3.882813 8.679687 8.675781 8.679687zm0 0"/><path d="m52.066406 243.359375h43.390625c4.792969 0 8.679688-3.882813 8.679688-8.675781 0-4.792969-3.886719-8.679688-8.679688-8.679688h-43.390625c-4.792968 0-8.675781 3.886719-8.675781 8.679688 0 4.792968 3.882813 8.675781 8.675781 8.675781zm0 0"/><path d="m286.371094 226.003906h-147.523438c-4.792968 0-8.679687 3.886719-8.679687 8.679688 0 4.792968 3.886719 8.675781 8.679687 8.675781h147.523438c4.792968 0 8.679687-3.882813 8.679687-8.675781 0-4.792969-3.886719-8.679688-8.679687-8.679688zm0 0"/><path d="m52.066406 286.75h26.035156c4.792969 0 8.679688-3.882812 8.679688-8.675781s-3.886719-8.679688-8.679688-8.679688h-26.035156c-4.792968 0-8.675781 3.886719-8.675781 8.679688s3.882813 8.675781 8.675781 8.675781zm0 0"/><path d="m121.492188 286.75h112.8125c4.792968 0 8.679687-3.882812 8.679687-8.675781s-3.886719-8.679688-8.679687-8.679688h-112.8125c-4.792969 0-8.679688 3.886719-8.679688 8.679688s3.886719 8.675781 8.679688 8.675781zm0 0"/><path d="m156.203125 69.800781h69.425781c4.789063 0 8.675782-3.882812 8.675782-8.675781s-3.886719-8.679688-8.675782-8.679688h-69.425781c-4.792969 0-8.675781 3.886719-8.675781 8.679688s3.882812 8.675781 8.675781 8.675781zm0 0"/></g><path d="m492.386719 213.535156c-.226563 4.585938-2.21875 8.90625-5.554688 12.0625l-47.03125 43.5625c-2.21875 2.367188-5.566406 3.304688-8.6875 2.425782-3.121093-.878907-5.492187-3.425782-6.148437-6.601563s.515625-6.453125 3.03125-8.492187l47.035156-43.652344-17.703125-19.089844 12.671875-11.804688 17.703125 19.09375c3.195313 3.355469 4.886719 7.867188 4.683594 12.496094zm0 0" fill="#cad0d7"/><path d="m78.101562 451.632812v34.710938c.027344 9.574219 7.78125 17.328125 17.355469 17.355469h-26.035156c-9.570313-.027344-17.324219-7.78125-17.355469-17.355469v-34.710938zm0 0" fill="#848f9e"/><path d="m86.78125.378906v26.03125l-60.746094 60.746094h-26.035156zm0 0" fill="#457393"/><path d="m43.390625 451.632812h-26.035156c-9.574219-.027343-17.3281252-7.78125-17.355469-17.355468v-347.121094h26.035156v347.121094c.027344 9.574218 7.78125 17.328125 17.355469 17.355468zm0 0" fill="#cad0d7"/><path d="m112.8125.378906-26.03125 26.03125v-26.03125zm0 0" fill="#cad0d7"/><path d="m275.699219 317.0625-4.597657 4.253906-40.875 48.769532-12.324218-13.277344 44.953125-53.628906zm0 0" fill="#2fa68a"/><path d="m230.226562 370.058594-4.078124 4.859375-1.5625 1.390625c-9.378907 8.597656-17.113282 18.828125-22.824219 30.199218v.085938c-.347657.085938-.78125.261719-1.128907.347656-3.164062 1.246094-6.773437.429688-9.09375-2.0625-2.320312-2.492187-2.875-6.148437-1.40625-9.21875 5.921876-14.246094 14.863282-27.035156 26.207032-37.488281l1.5625-1.390625zm0 0" fill="#365972"/><path d="m503.757812 138.359375c-9.976562-9.339844-25.472656-9.378906-35.496093-.089844l-27.160157 25.253907-12.84375-13.882813 31.761719-29.507813c7.472657-6.941406 18.3125-8.878906 27.730469-4.953124 9.414062 3.921874 15.671875 12.984374 16.007812 23.179687zm0 0" fill="#2fa68a"/><path d="m441.101562 163.550781-4.601562 4.25-160.800781 149.261719-12.84375-13.882812 165.402343-153.515626zm0 0" fill="#35ba9b"/></g></svg>