<svg height="503pt" viewBox="0 0 503.75597 503" width="503pt" xmlns="http://www.w3.org/2000/svg"><g fill-rule="evenodd"><path d="m347.117188 52.445312h34.714843c9.570313.027344 17.324219 7.78125 17.355469 17.355469v416.542969c-.03125 9.574219-7.785156 17.328125-17.355469 17.355469h-312.410156c-9.570313-.027344-17.324219-7.78125-17.355469-17.355469v-34.710938zm0 0" fill="#a9b0bb"/><path d="m347.117188 17.734375v416.542969c-.027344 9.574218-7.78125 17.328125-17.355469 17.355468h-312.40625c-9.574219-.027343-17.3281252-7.78125-17.355469-17.355468v-347.121094l86.78125-86.777344h242.980469c9.574219.027344 17.328125 7.78125 17.355469 17.355469zm0 0" fill="#e4e8eb"/><path d="m86.78125.378906v69.421875c-.03125 9.574219-7.785156 17.328125-17.359375 17.355469h-69.421875zm0 0" fill="#5e8faa"/><path d="m463.664062 135.753906-6.335937 5.902344-159.066406 147.609375-22.5625-24.296875-12.84375-13.882812 165.402343-153.515626 12.84375 13.886719 16.660157 17.960938zm0 0" fill="#46ceac"/><path d="m217.894531 304.707031 44.976563-53.597656 35.425781 38.15625-56.78125 40.875zm0 0" fill="#35ba9b"/><path d="m503.757812 87.15625c.011719 7.25-3.011718 14.171875-8.332031 19.09375l-25.425781 23.601562-6.335938 5.902344-5.902343-6.335937-29.503907-31.847657 31.761719-29.503906c7.589844-7.039062 18.628907-8.914062 28.117188-4.773437 9.488281 4.144531 15.621093 13.511719 15.621093 23.863281zm0 0" fill="#35ba9b"/><path d="m241.507812 330.140625-1.5625 1.386719c-10.886718 10.355468-23.925781 18.175781-38.183593 22.910156v.089844c-.347657.085937-.78125.257812-1.128907.34375-3.164062 1.25-6.773437.433594-9.09375-2.058594-2.320312-2.492188-2.875-6.152344-1.40625-9.222656 5.921876-14.242188 14.863282-27.035156 26.207032-37.488282l1.5625-1.386718 12.324218 13.277344zm0 0" fill="#457393"/><path d="m492.386719 161.441406c-.226563 4.585938-2.21875 8.90625-5.554688 12.0625l-47.03125 43.5625c-2.21875 2.367188-5.566406 3.304688-8.6875 2.425782-3.121093-.878907-5.492187-3.425782-6.148437-6.601563s.515625-6.453125 3.03125-8.492187l47.035156-43.652344-17.703125-19.089844 12.671875-11.804688 17.703125 19.09375c3.195313 3.355469 4.886719 7.867188 4.683594 12.496094zm0 0" fill="#cad0d7"/><path d="m78.101562 451.632812v34.710938c.027344 9.574219 7.78125 17.328125 17.355469 17.355469h-26.035156c-9.570313-.027344-17.324219-7.78125-17.355469-17.355469v-34.710938zm0 0" fill="#848f9e"/><path d="m86.78125.378906v26.03125l-60.746094 60.746094h-26.035156zm0 0" fill="#457393"/><path d="m43.390625 451.632812h-26.035156c-9.574219-.027343-17.3281252-7.78125-17.355469-17.355468v-347.121094h26.035156v347.121094c.027344 9.574218 7.78125 17.328125 17.355469 17.355468zm0 0" fill="#cad0d7"/><path d="m112.8125.378906-26.03125 26.03125v-26.03125zm0 0" fill="#cad0d7"/><path d="m275.699219 264.96875-4.597657 4.253906-40.875 48.769532-12.324218-13.277344 44.953125-53.628906zm0 0" fill="#2fa68a"/><path d="m230.226562 317.992188-4.078124 4.859374-1.5625 1.386719c-9.378907 8.597657-17.113282 18.832031-22.824219 30.199219v.089844c-.347657.085937-.78125.257812-1.128907.34375-3.164062 1.25-6.773437.433594-9.09375-2.058594-2.320312-2.492188-2.875-6.152344-1.40625-9.222656 5.921876-14.242188 14.863282-27.035156 26.207032-37.488282l1.5625-1.386718zm0 0" fill="#365972"/><path d="m503.757812 86.289062c-9.976562-9.339843-25.472656-9.375-35.496093-.085937l-27.160157 25.253906-12.84375-13.886719 31.761719-29.503906c7.472657-6.941406 18.3125-8.878906 27.730469-4.957031 9.414062 3.925781 15.671875 12.984375 16.007812 23.179687zm0 0" fill="#2fa68a"/><path d="m441.101562 111.457031-4.601562 4.25-160.800781 149.261719-12.84375-13.882812 165.402343-153.515626zm0 0" fill="#35ba9b"/></g></svg>