<svg height="512" viewBox="0 0 64 64" width="512" xmlns="http://www.w3.org/2000/svg" xmlns:xlink="http://www.w3.org/1999/xlink"><linearGradient id="New_Gradient_Swatch_3" gradientUnits="userSpaceOnUse" x1="21" x2="21" y1="63.579" y2="-2.534"><stop offset="0" stop-color="#006df0"/><stop offset="1" stop-color="#00e7f0"/></linearGradient><linearGradient id="New_Gradient_Swatch_3-2" x1="22" x2="22" xlink:href="#New_Gradient_Swatch_3" y1="63.579" y2="-2.534"/><linearGradient id="New_Gradient_Swatch_3-6" x1="26" x2="26" xlink:href="#New_Gradient_Swatch_3" y1="63.579" y2="-2.534"/><linearGradient id="New_Gradient_Swatch_3-7" x1="10" x2="10" xlink:href="#New_Gradient_Swatch_3" y1="63.579" y2="-2.534"/><linearGradient id="New_Gradient_Swatch_3-8" x1="49" x2="49" xlink:href="#New_Gradient_Swatch_3" y1="63.579" y2="-2.534"/><linearGradient id="New_Gradient_Swatch_3-10" x1="32" x2="32" xlink:href="#New_Gradient_Swatch_3" y1="63.579" y2="-2.534"/><g id="download-format-files-document-paper"><path d="m33 36h-24a1 1 0 0 0 0 2h24a1 1 0 0 0 0-2z" fill="url(#New_Gradient_Swatch_3)"/><path d="m10 13a1 1 0 0 0 1 1h22a1 1 0 0 0 0-2h-22a1 1 0 0 0 -1 1z" fill="url(#New_Gradient_Swatch_3-2)"/><g fill="url(#New_Gradient_Swatch_3)"><path d="m33 42h-24a1 1 0 0 0 0 2h24a1 1 0 0 0 0-2z"/><path d="m33 48h-24a1 1 0 0 0 0 2h24a1 1 0 0 0 0-2z"/><path d="m33 54h-24a1 1 0 0 0 0 2h24a1 1 0 0 0 0-2z"/></g><path d="m8 19v12a1 1 0 0 0 1 1h34a1 1 0 0 0 1-1v-12a1 1 0 0 0 -1-1h-34a1 1 0 0 0 -1 1zm2 1h32v10h-32z" fill="url(#New_Gradient_Swatch_3-6)"/><path d="m8 8h5a1 1 0 0 0 0-2h-6a1 1 0 0 0 -1 1v6a1 1 0 0 0 2 0z" fill="url(#New_Gradient_Swatch_3-7)"/><path d="m55 51a1 1 0 0 0 -1 1v2h-10v-2a1 1 0 0 0 -2 0v3a1 1 0 0 0 1 1h12a1 1 0 0 0 1-1v-3a1 1 0 0 0 -1-1z" fill="url(#New_Gradient_Swatch_3-8)"/><path d="m48.293 52.707a1 1 0 0 0 1.414 0l4-4a1 1 0 0 0 -1.414-1.414l-2.293 2.293v-8.586a1 1 0 0 0 -2 0v8.586l-2.293-2.293a1 1 0 0 0 -1.414 1.414z" fill="url(#New_Gradient_Swatch_3-8)"/><path d="m50 36.05v-21.05a1.033 1.033 0 0 0 -.29-.71l-12-12a1.033 1.033 0 0 0 -.71-.29h-34a1 1 0 0 0 -1 1v58a1 1 0 0 0 1 1h46a12.994 12.994 0 0 0 1-25.95zm-12-30.64 8.59 8.59h-8.59zm-34 54.59v-56h32v11a1 1 0 0 0 1 1h11v20.05a12.98 12.98 0 0 0 -5.9 23.95zm45 0a11 11 0 1 1 11-11 11.007 11.007 0 0 1 -11 11z" fill="url(#New_Gradient_Swatch_3-10)"/></g></svg>