<svg height="512" viewBox="0 0 64 64" width="512" xmlns="http://www.w3.org/2000/svg" xmlns:xlink="http://www.w3.org/1999/xlink"><linearGradient id="New_Gradient_Swatch_3" gradientUnits="userSpaceOnUse" x1="32" x2="32" y1="67.137" y2="-5.971"><stop offset="0" stop-color="#006df0"/><stop offset="1" stop-color="#00e7f0"/></linearGradient><linearGradient id="New_Gradient_Swatch_3-2" x1="14" x2="14" xlink:href="#New_Gradient_Swatch_3" y1="67.137" y2="-5.971"/><linearGradient id="New_Gradient_Swatch_3-3" x1="22" x2="22" xlink:href="#New_Gradient_Swatch_3" y1="67.137" y2="-5.971"/><linearGradient id="New_Gradient_Swatch_3-7" x1="26" x2="26" xlink:href="#New_Gradient_Swatch_3" y1="67.137" y2="-5.971"/><linearGradient id="New_Gradient_Swatch_3-8" x1="10" x2="10" xlink:href="#New_Gradient_Swatch_3" y1="67.137" y2="-5.971"/><g id="paper-mail-document-format-file"><path d="m61 34h-11v-19a1.033 1.033 0 0 0 -.29-.71l-12-12a1.033 1.033 0 0 0 -.71-.29h-34a1 1 0 0 0 -1 1v58a1 1 0 0 0 1 1h58a1 1 0 0 0 1-1v-26a1 1 0 0 0 -1-1zm-2.62 2-15.71 14.06a1.008 1.008 0 0 1 -1.34 0l-15.71-14.06zm-20.38-30.59 8.59 8.59h-8.59zm-16 29.59v25h-18v-56h32v11a1 1 0 0 0 1 1h11v18h-25a1 1 0 0 0 -1 1zm2 2.24 12.03 10.76-12.03 10.76zm1.62 22.76 11.91-10.66 2.47 2.21a2.982 2.982 0 0 0 4 0l2.47-2.21 11.91 10.66zm34.38-1.24-12.03-10.76 12.03-10.76z" fill="url(#New_Gradient_Swatch_3)"/><path d="m9 36a1 1 0 0 0 0 2h10a1 1 0 0 0 0-2z" fill="url(#New_Gradient_Swatch_3-2)"/><path d="m10 13a1 1 0 0 0 1 1h22a1 1 0 0 0 0-2h-22a1 1 0 0 0 -1 1z" fill="url(#New_Gradient_Swatch_3-3)"/><g fill="url(#New_Gradient_Swatch_3-2)"><path d="m19 42h-10a1 1 0 0 0 0 2h10a1 1 0 0 0 0-2z"/><path d="m19 48h-10a1 1 0 0 0 0 2h10a1 1 0 0 0 0-2z"/><path d="m19 54h-10a1 1 0 0 0 0 2h10a1 1 0 0 0 0-2z"/></g><path d="m8 19v12a1 1 0 0 0 1 1h34a1 1 0 0 0 1-1v-12a1 1 0 0 0 -1-1h-34a1 1 0 0 0 -1 1zm2 1h32v10h-32z" fill="url(#New_Gradient_Swatch_3-7)"/><path d="m8 8h5a1 1 0 0 0 0-2h-6a1 1 0 0 0 -1 1v6a1 1 0 0 0 2 0z" fill="url(#New_Gradient_Swatch_3-8)"/></g></svg>