<svg height="512" viewBox="0 0 64 64" width="512" xmlns="http://www.w3.org/2000/svg" xmlns:xlink="http://www.w3.org/1999/xlink"><linearGradient id="New_Gradient_Swatch_3" gradientUnits="userSpaceOnUse" x1="32" x2="32" y1="67.936" y2="1.828"><stop offset="0" stop-color="#006df0"/><stop offset="1" stop-color="#00e7f0"/></linearGradient><linearGradient id="New_Gradient_Swatch_3-2" x1="28" x2="28" xlink:href="#New_Gradient_Swatch_3" y1="67.936" y2="1.828"/><linearGradient id="New_Gradient_Swatch_3-6" x1="15" x2="15" xlink:href="#New_Gradient_Swatch_3" y1="67.936" y2="1.828"/><g id="mail-file-document-paper-format"><path d="m23 10h18a1 1 0 0 0 0-2h-18a1 1 0 0 0 0 2z" fill="url(#New_Gradient_Swatch_3)"/><path d="m15 16h26a1 1 0 0 0 0-2h-26a1 1 0 0 0 0 2z" fill="url(#New_Gradient_Swatch_3-2)"/><g fill="url(#New_Gradient_Swatch_3)"><path d="m14 21a1 1 0 0 0 1 1h34a1 1 0 0 0 0-2h-34a1 1 0 0 0 -1 1z"/><path d="m49 26h-34a1 1 0 0 0 0 2h34a1 1 0 0 0 0-2z"/><path d="m43 32h-22a1 1 0 0 0 0 2h22a1 1 0 0 0 0-2z"/></g><path d="m13 12a1 1 0 0 0 1-1v-3h3a1 1 0 0 0 0-2h-4a1 1 0 0 0 -1 1v4a1 1 0 0 0 1 1z" fill="url(#New_Gradient_Swatch_3-6)"/><path d="m62 24.938-.006-.059a.993.993 0 0 0 -.342-.63l-5.652-4.749v-6.5a1 1 0 0 0 -.293-.707l-10-10a1 1 0 0 0 -.707-.293h-36a1 1 0 0 0 -1 1v16.5l-5.643 4.73a1 1 0 0 0 -.357.77v36a1 1 0 0 0 1 1h58a1 1 0 0 0 1-1v-35.993c0-.023 0-.046 0-.069zm-38.818 18.062-19.182 15.874v-31.748zm8.181-4.174a.993.993 0 0 1 1.28.005l25.58 21.169h-52.446zm9.456 4.174 19.181-15.874v31.748zm5.181-37.586 6.586 6.586h-6.586zm13.437 19.586-3.437 2.84v-5.727zm-49.437-21h34v9a1 1 0 0 0 1 1h9v15.17a.988.988 0 0 0 .056.278l-14.806 12.252-5.327-4.409a2.986 2.986 0 0 0 -3.84 0l-5.333 4.409-14.806-12.252a.988.988 0 0 0 .056-.278zm-2 23.84-3.437-2.84 3.437-2.887z" fill="url(#New_Gradient_Swatch_3)"/></g></svg>