<svg height="512" viewBox="0 0 64 64" width="512" xmlns="http://www.w3.org/2000/svg" xmlns:xlink="http://www.w3.org/1999/xlink"><linearGradient id="New_Gradient_Swatch_3" gradientUnits="userSpaceOnUse" x1="22" x2="22" y1="67.158" y2="3.378"><stop offset="0" stop-color="#006df0"/><stop offset="1" stop-color="#00e7f0"/></linearGradient><linearGradient id="New_Gradient_Swatch_3-2" x1="18" x2="18" xlink:href="#New_Gradient_Swatch_3" y1="67.158" y2="3.378"/><linearGradient id="New_Gradient_Swatch_3-3" x1="16" x2="16" xlink:href="#New_Gradient_Swatch_3" y1="67.158" y2="3.378"/><linearGradient id="New_Gradient_Swatch_3-4" x1="15" x2="15" xlink:href="#New_Gradient_Swatch_3" y1="67.158" y2="3.378"/><linearGradient id="New_Gradient_Swatch_3-5" x1="14.5" x2="14.5" xlink:href="#New_Gradient_Swatch_3" y1="67.158" y2="3.378"/><linearGradient id="New_Gradient_Swatch_3-6" x1="15.5" x2="15.5" xlink:href="#New_Gradient_Swatch_3" y1="67.158" y2="3.378"/><linearGradient id="New_Gradient_Swatch_3-9" x1="10" x2="10" xlink:href="#New_Gradient_Swatch_3" y1="67.158" y2="3.378"/><linearGradient id="New_Gradient_Swatch_3-11" x1="38" x2="38" xlink:href="#New_Gradient_Swatch_3" y1="67.158" y2="3.378"/><linearGradient id="New_Gradient_Swatch_3-12" x1="32.251" x2="32.251" xlink:href="#New_Gradient_Swatch_3" y1="67.158" y2="3.378"/><g id="search-file-document-paper-format"><path d="m10 11a1 1 0 0 0 1 1h22a1 1 0 0 0 0-2h-22a1 1 0 0 0 -1 1z" fill="url(#New_Gradient_Swatch_3)"/><path d="m25 22h-14a1 1 0 0 0 0 2h14a1 1 0 0 0 0-2z" fill="url(#New_Gradient_Swatch_3-2)"/><path d="m21 28h-10a1 1 0 0 0 0 2h10a1 1 0 0 0 0-2z" fill="url(#New_Gradient_Swatch_3-3)"/><path d="m11 36h8a1 1 0 0 0 0-2h-8a1 1 0 0 0 0 2z" fill="url(#New_Gradient_Swatch_3-4)"/><path d="m11 42h7a1 1 0 0 0 0-2h-7a1 1 0 0 0 0 2z" fill="url(#New_Gradient_Swatch_3-5)"/><path d="m11 48h9a1 1 0 0 0 0-2h-9a1 1 0 0 0 0 2z" fill="url(#New_Gradient_Swatch_3-6)"/><path d="m25 52h-14a1 1 0 0 0 0 2h14a1 1 0 0 0 0-2z" fill="url(#New_Gradient_Swatch_3-2)"/><path d="m33 16h-22a1 1 0 0 0 0 2h22a1 1 0 0 0 0-2z" fill="url(#New_Gradient_Swatch_3)"/><path d="m13 56h-5v-5a1 1 0 0 0 -2 0v6a1 1 0 0 0 1 1h6a1 1 0 0 0 0-2z" fill="url(#New_Gradient_Swatch_3-9)"/><path d="m7 14a1 1 0 0 0 1-1v-5h5a1 1 0 0 0 0-2h-6a1 1 0 0 0 -1 1v6a1 1 0 0 0 1 1z" fill="url(#New_Gradient_Swatch_3-9)"/><path d="m28.808 28.808a13 13 0 1 0 18.384 0 13.013 13.013 0 0 0 -18.384 0zm16.97 16.97a11 11 0 1 1 0-15.556 11.013 11.013 0 0 1 0 15.556z" fill="url(#New_Gradient_Swatch_3-11)"/><path d="m61.34 55.67-8.84-8.83a17.013 17.013 0 0 0 -2.48-20.86l-.02-.02v-10.96a1.033 1.033 0 0 0 -.29-.71l-12-12a1.033 1.033 0 0 0 -.71-.29h-34a1 1 0 0 0 -1 1v58a1 1 0 0 0 1 1h46a1 1 0 0 0 1-1v-5.34l5.68 5.68a3.971 3.971 0 0 0 2.83 1.16 4 4 0 0 0 2.83-6.83zm-12.73-7.06a14.99 14.99 0 1 1 0-21.22 15.022 15.022 0 0 1 0 21.22zm-10.61-43.2 8.59 8.59h-8.59zm10 54.59h-44v-56h32v11a1 1 0 0 0 1 1h11v8.28a16.988 16.988 0 1 0 -1.16 28.22l1.16 1.16zm11.92-.08a2 2 0 0 1 -2.83 0l-8.57-8.58a15.684 15.684 0 0 0 2.82-2.82l8.58 8.56a2.016 2.016 0 0 1 0 2.84z" fill="url(#New_Gradient_Swatch_3-12)"/><g fill="url(#New_Gradient_Swatch_3-11)"><path d="m44 37h-12a1 1 0 0 0 0 2h12a1 1 0 0 0 0-2z"/><path d="m44 33h-12a1 1 0 0 0 0 2h12a1 1 0 0 0 0-2z"/><path d="m44 41h-12a1 1 0 0 0 0 2h12a1 1 0 0 0 0-2z"/></g></g></svg>