<svg height="512" viewBox="0 0 64 64" width="512" xmlns="http://www.w3.org/2000/svg" xmlns:xlink="http://www.w3.org/1999/xlink"><linearGradient id="New_Gradient_Swatch_3" gradientUnits="userSpaceOnUse" x1="13" x2="13" y1="64.804" y2="-2.86"><stop offset="0" stop-color="#006df0"/><stop offset="1" stop-color="#00e7f0"/></linearGradient><linearGradient id="New_Gradient_Swatch_3-3" x1="37" x2="37" xlink:href="#New_Gradient_Swatch_3" y1="64.804" y2="-2.86"/><linearGradient id="New_Gradient_Swatch_3-4" x1="41" x2="41" xlink:href="#New_Gradient_Swatch_3" y1="64.804" y2="-2.86"/><linearGradient id="New_Gradient_Swatch_3-5" x1="30" x2="30" xlink:href="#New_Gradient_Swatch_3" y1="64.804" y2="-2.86"/><linearGradient id="New_Gradient_Swatch_3-6" x1="31.5" x2="31.5" xlink:href="#New_Gradient_Swatch_3" y1="64.804" y2="-2.86"/><linearGradient id="New_Gradient_Swatch_3-7" x1="34.5" x2="34.5" xlink:href="#New_Gradient_Swatch_3" y1="64.804" y2="-2.86"/><linearGradient id="New_Gradient_Swatch_3-11" x1="19" x2="19" xlink:href="#New_Gradient_Swatch_3" y1="64.804" y2="-2.86"/><linearGradient id="New_Gradient_Swatch_3-12" x1="32" x2="32" xlink:href="#New_Gradient_Swatch_3" y1="64.804" y2="-2.86"/><g id="setting-gear-document-format-file"><path d="m13 47a4 4 0 1 0 4 4 4 4 0 0 0 -4-4zm0 6a2 2 0 1 1 2-2 2 2 0 0 1 -2 2z" fill="url(#New_Gradient_Swatch_3)"/><path d="m22.49 56.659a1 1 0 0 0 -.294-.707l-1.831-1.824.053-.128h2.582a1 1 0 0 0 1-1v-4a1 1 0 0 0 -1-1h-2.582c-.017-.042-.033-.083-.051-.123l1.83-1.83a1 1 0 0 0 0-1.414l-2.83-2.83a1 1 0 0 0 -.707-.293 1 1 0 0 0 -.708.294l-1.822 1.831-.13-.053v-2.582a1 1 0 0 0 -1-1h-4a1 1 0 0 0 -1 1v2.582l-.129.053-1.822-1.835a1 1 0 0 0 -.708-.294 1 1 0 0 0 -.707.293l-2.834 2.834a1 1 0 0 0 0 1.414l1.83 1.83c-.018.04-.034.081-.051.123h-2.579a1 1 0 0 0 -1 1v4a1 1 0 0 0 1 1h2.582l.053.128-1.835 1.824a1 1 0 0 0 0 1.415l2.83 2.83a1 1 0 0 0 1.414 0l1.83-1.83.123.051v2.582a1 1 0 0 0 1 1h4a1 1 0 0 0 1-1v-2.582l.123-.051 1.83 1.83a1 1 0 0 0 1.414 0l2.83-2.83a1 1 0 0 0 .296-.708zm-3.83 1.417-1.623-1.623a1 1 0 0 0 -1.187-.17 6.051 6.051 0 0 1 -1.141.47 1 1 0 0 0 -.709.957v2.29h-2v-2.29a1 1 0 0 0 -.709-.957 6.051 6.051 0 0 1 -1.141-.47 1 1 0 0 0 -1.187.17l-1.623 1.623-1.414-1.414 1.62-1.614a1.022 1.022 0 0 0 .294-.718 1 1 0 0 0 -.122-.479 5.991 5.991 0 0 1 -.471-1.142 1 1 0 0 0 -.957-.709h-2.29v-2h2.29a1 1 0 0 0 .957-.709 5.991 5.991 0 0 1 .471-1.142 1 1 0 0 0 -.171-1.186l-1.623-1.623 1.414-1.415 1.613 1.62a1.035 1.035 0 0 0 1.2.172 6.051 6.051 0 0 1 1.141-.47 1 1 0 0 0 .708-.957v-2.29h2v2.29a1 1 0 0 0 .709.957 6.051 6.051 0 0 1 1.141.47 1.035 1.035 0 0 0 1.2-.172l1.613-1.62 1.414 1.415-1.623 1.623a1 1 0 0 0 -.171 1.186 5.991 5.991 0 0 1 .471 1.142 1 1 0 0 0 .956.709h2.29v2h-2.29a1 1 0 0 0 -.957.709 5.991 5.991 0 0 1 -.471 1.142 1.039 1.039 0 0 0 -.122.489 1 1 0 0 0 .294.708l1.62 1.614z" fill="url(#New_Gradient_Swatch_3)"/><path d="m61 2h-38a1 1 0 0 0 -1 1v4h-4a1 1 0 0 0 -1 1v4h-4a1 1 0 0 0 -1 1v25a1 1 0 0 0 2 0v-24h28v6a2.006 2.006 0 0 0 2 2h6v38h-28a1 1 0 0 0 0 2h29a1 1 0 0 0 1-1v-4h4a1 1 0 0 0 1-1v-4h4a1 1 0 0 0 1-1v-48a1 1 0 0 0 -1-1zm-17 18v-4.59l4.59 4.59zm11 35h-3v-34a1.033 1.033 0 0 0 -.29-.71l-8-8a1.033 1.033 0 0 0 -.71-.29h-24v-3h36zm5-5h-3v-42a1 1 0 0 0 -1-1h-32v-3h36z" fill="url(#New_Gradient_Swatch_3-3)"/><path d="m45 46h-8a1 1 0 0 0 -1 1v8a1 1 0 0 0 1 1h8a1 1 0 0 0 1-1v-8a1 1 0 0 0 -1-1zm-1 8h-6v-6h6z" fill="url(#New_Gradient_Swatch_3-4)"/><path d="m20 23a1 1 0 0 0 1 1h18a1 1 0 0 0 0-2h-18a1 1 0 0 0 -1 1z" fill="url(#New_Gradient_Swatch_3-5)"/><path d="m39 20a1 1 0 0 0 0-2h-15a1 1 0 0 0 0 2z" fill="url(#New_Gradient_Swatch_3-6)"/><path d="m45 40h-21a1 1 0 0 0 0 2h21a1 1 0 0 0 0-2z" fill="url(#New_Gradient_Swatch_3-7)"/><g fill="url(#New_Gradient_Swatch_3-5)"><path d="m33 46h-6a1 1 0 0 0 0 2h6a1 1 0 0 0 0-2z"/><path d="m33 50h-6a1 1 0 0 0 0 2h6a1 1 0 0 0 0-2z"/><path d="m33 54h-6a1 1 0 0 0 0 2h6a1 1 0 0 0 0-2z"/></g><path d="m21 16h-4a1 1 0 0 0 -1 1v4a1 1 0 0 0 2 0v-3h3a1 1 0 0 0 0-2z" fill="url(#New_Gradient_Swatch_3-11)"/><path d="m46 27a1 1 0 0 0 -1-1h-26a1 1 0 0 0 -1 1v8a1 1 0 0 0 1 1h26a1 1 0 0 0 1-1zm-2 7h-24v-6h24z" fill="url(#New_Gradient_Swatch_3-12)"/></g></svg>