<svg height="512" viewBox="0 0 64 64" width="512" xmlns="http://www.w3.org/2000/svg" xmlns:xlink="http://www.w3.org/1999/xlink"><linearGradient id="New_Gradient_Swatch_3" gradientUnits="userSpaceOnUse" x1="32" x2="32" y1="63.813" y2=".816"><stop offset="0" stop-color="#006df0"/><stop offset="1" stop-color="#00e7f0"/></linearGradient><linearGradient id="New_Gradient_Swatch_3-3" x1="29" x2="29" xlink:href="#New_Gradient_Swatch_3" y1="63.813" y2=".816"/><linearGradient id="New_Gradient_Swatch_3-4" x1="35" x2="35" xlink:href="#New_Gradient_Swatch_3" y1="63.813" y2=".816"/><linearGradient id="New_Gradient_Swatch_3-5" x1="16" x2="16" xlink:href="#New_Gradient_Swatch_3" y1="63.813" y2=".816"/><linearGradient id="New_Gradient_Swatch_3-6" x1="48" x2="48" xlink:href="#New_Gradient_Swatch_3" y1="63.813" y2=".816"/><g id="file-files-document-paper-refresh"><path d="m55.707 14.293-12-12a1 1 0 0 0 -.707-.293h-34a1 1 0 0 0 -1 1v58a1 1 0 0 0 1 1h46a1 1 0 0 0 1-1v-46a1 1 0 0 0 -.293-.707zm-11.707-8.879 8.586 8.586h-8.586zm-34 54.586v-56h32v11a1 1 0 0 0 1 1h11v44z" fill="url(#New_Gradient_Swatch_3)"/><path d="m50 34a18 18 0 1 0 -18 18 18.021 18.021 0 0 0 18-18zm-18 16a16 16 0 1 1 16-16 16.019 16.019 0 0 1 -16 16z" fill="url(#New_Gradient_Swatch_3)"/><path d="m33.586 27-1.121 1.122a1 1 0 1 0 1.414 1.414l2.828-2.829a1 1 0 0 0 0-1.414l-2.828-2.829a1 1 0 1 0 -1.414 1.414l1.121 1.122h-3.586a9.011 9.011 0 0 0 -9 9v4a1 1 0 0 0 2 0v-4a7.008 7.008 0 0 1 7-7z" fill="url(#New_Gradient_Swatch_3-3)"/><path d="m42 29a1 1 0 0 0 -1 1v4a7.008 7.008 0 0 1 -7 7h-3.586l1.122-1.122a1 1 0 0 0 -1.414-1.414l-2.829 2.829a1 1 0 0 0 0 1.414l2.829 2.829a1 1 0 0 0 1.414-1.414l-1.122-1.122h3.586a9.01 9.01 0 0 0 9-9v-4a1 1 0 0 0 -1-1z" fill="url(#New_Gradient_Swatch_3-4)"/><path d="m14 8h5a1 1 0 0 0 0-2h-6a1 1 0 0 0 -1 1v6a1 1 0 0 0 2 0z" fill="url(#New_Gradient_Swatch_3-5)"/><path d="m51 50a1 1 0 0 0 -1 1v5h-5a1 1 0 0 0 0 2h6a1 1 0 0 0 1-1v-6a1 1 0 0 0 -1-1z" fill="url(#New_Gradient_Swatch_3-6)"/></g></svg>