<svg height="512" viewBox="0 0 64 64" width="512" xmlns="http://www.w3.org/2000/svg" xmlns:xlink="http://www.w3.org/1999/xlink"><linearGradient id="New_Gradient_Swatch_3" gradientUnits="userSpaceOnUse" x1="32" x2="32" y1="62.381" y2="3.16"><stop offset="0" stop-color="#006df0"/><stop offset="1" stop-color="#00e7f0"/></linearGradient><linearGradient id="New_Gradient_Swatch_3-2" x1="19" x2="19" xlink:href="#New_Gradient_Swatch_3" y1="62.381" y2="3.16"/><linearGradient id="New_Gradient_Swatch_3-4" x1="45" x2="45" xlink:href="#New_Gradient_Swatch_3" y1="62.381" y2="3.16"/><linearGradient id="New_Gradient_Swatch_3-8" x1="36" x2="36" xlink:href="#New_Gradient_Swatch_3" y1="62.381" y2="3.16"/><linearGradient id="New_Gradient_Swatch_3-9" x1="42" x2="42" xlink:href="#New_Gradient_Swatch_3" y1="62.381" y2="3.16"/><linearGradient id="New_Gradient_Swatch_3-10" x1="48" x2="48" xlink:href="#New_Gradient_Swatch_3" y1="62.381" y2="3.16"/><linearGradient id="New_Gradient_Swatch_3-11" x1="54" x2="54" xlink:href="#New_Gradient_Swatch_3" y1="62.381" y2="3.16"/><g id="id_card-man-business-organization-card" data-name="id card-man-business-organization-card"><path d="m59 14h-17.35a6.033 6.033 0 0 0 -4.4-3.87l1.72-6.89a1.022 1.022 0 0 0 -.18-.86 1 1 0 0 0 -.79-.38h-12a1 1 0 0 0 -.79.38 1.022 1.022 0 0 0 -.18.86l1.72 6.89a6.033 6.033 0 0 0 -4.4 3.87h-17.35a3.009 3.009 0 0 0 -3 3v42a3.009 3.009 0 0 0 3 3h54a3.009 3.009 0 0 0 3-3v-42a3.009 3.009 0 0 0 -3-3zm-22.28-10-1.5 6h-6.44l-1.5-6zm-12.72 12a4 4 0 0 1 4-4h8a4 4 0 0 1 4 4v2h-16zm36 43a1 1 0 0 1 -1 1h-54a1 1 0 0 1 -1-1v-35h56zm0-37h-56v-5a1 1 0 0 1 1-1h17v3a1 1 0 0 0 1 1h18a1 1 0 0 0 1-1v-3h17a1 1 0 0 1 1 1z" fill="url(#New_Gradient_Swatch_3)"/><path d="m23 40h-1v-1.03a4.952 4.952 0 0 0 2-3.97v-.28a2 2 0 0 0 1-1.72v-2a3.009 3.009 0 0 0 -3-3h-10a1 1 0 0 0 -1 1v2a4 4 0 0 0 3 3.86v.14a4.952 4.952 0 0 0 2 3.97v1.03h-1a7.008 7.008 0 0 0 -7 7v4a1 1 0 0 0 1 1h20a1 1 0 0 0 1-1v-4a7.008 7.008 0 0 0 -7-7zm-4-2a3.009 3.009 0 0 1 -3-3h6a3.009 3.009 0 0 1 -3 3zm2.67 3.97a3.976 3.976 0 0 1 -5.34 0 2.008 2.008 0 0 0 1.67-1.97v-.1a5.05 5.05 0 0 0 2 0v.1a2.008 2.008 0 0 0 1.67 1.97zm-6.67-8.97a2.006 2.006 0 0 1 -2-2v-1h9a1 1 0 0 1 1 1v2zm13 17h-3v-3a1 1 0 0 0 -2 0v3h-8v-3a1 1 0 0 0 -2 0v3h-3v-3a5.015 5.015 0 0 1 3.89-4.87 5.984 5.984 0 0 0 10.22 0 5.015 5.015 0 0 1 3.89 4.87z" fill="url(#New_Gradient_Swatch_3-2)"/><path d="m9 56h20a1 1 0 0 0 0-2h-20a1 1 0 0 0 0 2z" fill="url(#New_Gradient_Swatch_3-2)"/><g fill="url(#New_Gradient_Swatch_3-4)"><path d="m35 46h20a1 1 0 0 0 0-2h-20a1 1 0 0 0 0 2z"/><path d="m35 42h20a1 1 0 0 0 0-2h-20a1 1 0 0 0 0 2z"/><path d="m35 38h20a1 1 0 0 0 0-2h-20a1 1 0 0 0 0 2z"/><path d="m35 56h20a1 1 0 0 0 1-1v-6a1 1 0 0 0 -1-1h-20a1 1 0 0 0 -1 1v6a1 1 0 0 0 1 1zm1-6h18v4h-18z"/></g><path d="m35 32h2a1 1 0 0 0 0-2h-2a1 1 0 0 0 0 2z" fill="url(#New_Gradient_Swatch_3-8)"/><path d="m41 32h2a1 1 0 0 0 0-2h-2a1 1 0 0 0 0 2z" fill="url(#New_Gradient_Swatch_3-9)"/><path d="m47 32h2a1 1 0 0 0 0-2h-2a1 1 0 0 0 0 2z" fill="url(#New_Gradient_Swatch_3-10)"/><path d="m53 32h2a1 1 0 0 0 0-2h-2a1 1 0 0 0 0 2z" fill="url(#New_Gradient_Swatch_3-11)"/></g></svg>