<svg height="512" viewBox="0 0 64 64" width="512" xmlns="http://www.w3.org/2000/svg" xmlns:xlink="http://www.w3.org/1999/xlink"><linearGradient id="New_Gradient_Swatch_3" gradientUnits="userSpaceOnUse" x1="31.935" x2="31.935" y1="63.772" y2="4.014"><stop offset="0" stop-color="#006df0"/><stop offset="1" stop-color="#00e7f0"/></linearGradient><linearGradient id="New_Gradient_Swatch_3-2" x1="27" x2="27" xlink:href="#New_Gradient_Swatch_3" y1="63.772" y2="4.014"/><g id="search-magnifly_glass-man-business-research" data-name="search-magnifly glass-man-business-research"><path d="m60.7 55.04-10.37-10.36.71-.71a1 1 0 0 0 0-1.41l-2.64-2.65a25.02 25.02 0 1 0 -8.49 8.49l2.65 2.64a1 1 0 0 0 1.41 0l.71-.71 10.36 10.37a4 4 0 0 0 5.66-5.66zm-33.7-5.04a23 23 0 1 1 23-23 23.029 23.029 0 0 1 -23 23zm16.26-1.08-1.65-1.65a25.329 25.329 0 0 0 5.66-5.66l1.65 1.65zm16.02 10.36a2.029 2.029 0 0 1 -2.82 0l-10.37-10.36 2.83-2.83 10.36 10.37a1.98 1.98 0 0 1 0 2.82z" fill="url(#New_Gradient_Swatch_3)"/><g fill="url(#New_Gradient_Swatch_3-2)"><path d="m27 7a20 20 0 1 0 20 20 20.02 20.02 0 0 0 -20-20zm0 38a18 18 0 1 1 18-18 18.014 18.014 0 0 1 -18 18z"/><path d="m31 26h-1v-1.03a4.952 4.952 0 0 0 2-3.97v-.28a1.988 1.988 0 0 0 1-1.72v-2a3.009 3.009 0 0 0 -3-3h-10a1 1 0 0 0 -1 1v2a4 4 0 0 0 3 3.86v.14a4.952 4.952 0 0 0 2 3.97v1.03h-1a7.008 7.008 0 0 0 -7 7v4a1 1 0 0 0 1 1h20a1 1 0 0 0 1-1v-4a7.008 7.008 0 0 0 -7-7zm-4-2a3.009 3.009 0 0 1 -3-3h6a3.009 3.009 0 0 1 -3 3zm2.67 3.97a3.976 3.976 0 0 1 -5.34 0 2.008 2.008 0 0 0 1.67-1.97v-.1a5.05 5.05 0 0 0 2 0v.1a2.008 2.008 0 0 0 1.67 1.97zm-6.67-8.97a2.006 2.006 0 0 1 -2-2v-1h9a1 1 0 0 1 1 1v2zm13 17h-3v-3a1 1 0 0 0 -2 0v3h-8v-3a1 1 0 0 0 -2 0v3h-3v-3a5.015 5.015 0 0 1 3.89-4.87 5.984 5.984 0 0 0 10.22 0 5.015 5.015 0 0 1 3.89 4.87z"/></g></g></svg>