<svg height="512" viewBox="0 0 64 64" width="512" xmlns="http://www.w3.org/2000/svg" xmlns:xlink="http://www.w3.org/1999/xlink"><linearGradient id="New_Gradient_Swatch_3" gradientUnits="userSpaceOnUse" x1="29.5" x2="29.5" y1="67.772" y2="-.965"><stop offset="0" stop-color="#006df0"/><stop offset="1" stop-color="#00e7f0"/></linearGradient><linearGradient id="New_Gradient_Swatch_3-2" x1="32" x2="32" xlink:href="#New_Gradient_Swatch_3" y1="67.772" y2="-.965"/><linearGradient id="New_Gradient_Swatch_3-3" x1="44" x2="44" xlink:href="#New_Gradient_Swatch_3" y1="67.772" y2="-.965"/><linearGradient id="New_Gradient_Swatch_3-4" x1="38" x2="38" xlink:href="#New_Gradient_Swatch_3" y1="67.772" y2="-.965"/><g id="Like"><path d="m54.71 12.29-10-10a1.033 1.033 0 0 0 -.71-.29h-34a1 1 0 0 0 -1 1v36h-4a1 1 0 0 0 -1 1v17a1 1 0 0 0 1 1h4v3a1 1 0 0 0 1 1h44a1 1 0 0 0 1-1v-48a1.033 1.033 0 0 0 -.29-.71zm-9.71-6.88 6.59 6.59h-5.59a1 1 0 0 1 -1-1zm-39 50.59v-15h6v15zm47 4h-42v-2h2a1 1 0 0 0 1-1v-.29a12.867 12.867 0 0 0 5.63 1.29h11.37a2.993 2.993 0 0 0 2.61-4.47 2.744 2.744 0 0 0 .5-.4 2.971 2.971 0 0 0 .89-2.13 2.934 2.934 0 0 0 -.39-1.47 2.744 2.744 0 0 0 .5-.4 2.971 2.971 0 0 0 .89-2.13 2.934 2.934 0 0 0 -.39-1.47 2.744 2.744 0 0 0 .5-.4 3.01 3.01 0 0 0 .88-2.39 3.073 3.073 0 0 0 -3.1-2.74h-8.89v-5a3.009 3.009 0 0 0 -3-3h-2a1 1 0 0 0 -1 1v3a5 5 0 0 1 -5 5v-1a1 1 0 0 0 -1-1h-2v-35h32v7a3.009 3.009 0 0 0 3 3h7zm-29-18h9.89a1.092 1.092 0 0 1 1.11.91.985.985 0 0 1 -.31.8.928.928 0 0 1 -.69.29h-1a1 1 0 0 0 0 2 1 1 0 0 1 1 1 .949.949 0 0 1 -.31.71.928.928 0 0 1 -.69.29h-1a1 1 0 0 0 0 2 1 1 0 0 1 1 1 .949.949 0 0 1 -.31.71.928.928 0 0 1 -.69.29h-1a1 1 0 0 0 0 2 1 1 0 0 1 1 1 .949.949 0 0 1 -.31.71.928.928 0 0 1 -.69.29h-11.37a10.934 10.934 0 0 1 -5.63-1.55v-11.45a7.008 7.008 0 0 0 7-7v-2h1a1 1 0 0 1 1 1v6a1 1 0 0 0 1 1z" fill="url(#New_Gradient_Swatch_3)"/><path d="m24 10h16a1 1 0 0 0 0-2h-16a1 1 0 0 0 0 2z" fill="url(#New_Gradient_Swatch_3-2)"/><path d="m50 52h-12a1 1 0 0 0 0 2h12a1 1 0 0 0 0-2z" fill="url(#New_Gradient_Swatch_3-3)"/><path d="m48 32h-20a1 1 0 0 0 0 2h20a1 1 0 0 0 0-2z" fill="url(#New_Gradient_Swatch_3-4)"/><path d="m49 37a1 1 0 0 0 -1-1h-20a1 1 0 0 0 0 2h20a1 1 0 0 0 1-1z" fill="url(#New_Gradient_Swatch_3-4)"/><g fill="url(#New_Gradient_Swatch_3-2)"><path d="m16 18h32a1 1 0 0 0 0-2h-32a1 1 0 0 0 0 2z"/><path d="m16 22h32a1 1 0 0 0 0-2h-32a1 1 0 0 0 0 2z"/><path d="m16 26h32a1 1 0 0 0 0-2h-32a1 1 0 0 0 0 2z"/><path d="m49 29a1 1 0 0 0 -1-1h-32a1 1 0 0 0 0 2h32a1 1 0 0 0 1-1z"/></g><path d="m50 49h-.586l-1.707-1.707a1 1 0 0 0 -1.6.26l-.725 1.447h-1a2.978 2.978 0 0 0 .618-1.829v-.255a2.916 2.916 0 0 0 -5.416-1.5l-2.441 4.069a1 1 0 1 0 1.714 1.03l2.443-4.071a.916.916 0 0 1 1.7.472v.255a1 1 0 0 1 -.293.708l-1.414 1.414a1 1 0 0 0 .707 1.707h4a1 1 0 0 0 .9-.553l.379-.759 1.019 1.019a1 1 0 0 0 .702.293h1a1 1 0 0 0 0-2z" fill="url(#New_Gradient_Swatch_3-3)"/></g></svg>