<svg height="512" viewBox="0 0 64 64" width="512" xmlns="http://www.w3.org/2000/svg" xmlns:xlink="http://www.w3.org/1999/xlink"><linearGradient id="New_Gradient_Swatch_3" gradientUnits="userSpaceOnUse" x1="32" x2="32" y1="66.029" y2=".698"><stop offset="0" stop-color="#006df0"/><stop offset="1" stop-color="#00e7f0"/></linearGradient><linearGradient id="New_Gradient_Swatch_3-2" x1="19.5" x2="19.5" xlink:href="#New_Gradient_Swatch_3" y1="66.029" y2=".698"/><linearGradient id="New_Gradient_Swatch_3-3" x1="22" x2="22" xlink:href="#New_Gradient_Swatch_3" y1="66.029" y2=".698"/><linearGradient id="New_Gradient_Swatch_3-7" x1="26" x2="26" xlink:href="#New_Gradient_Swatch_3" y1="66.029" y2=".698"/><linearGradient id="New_Gradient_Swatch_3-8" x1="10" x2="10" xlink:href="#New_Gradient_Swatch_3" y1="66.029" y2=".698"/><g id="like-folder-document-paper-file"><path d="m61.99 40.74a3.073 3.073 0 0 0 -3.1-2.74h-6.89v-5a3.01 3.01 0 0 0 -2-2.82v-15.18a1.033 1.033 0 0 0 -.29-.71l-12-12a1.033 1.033 0 0 0 -.71-.29h-34a1 1 0 0 0 -1 1v58a1 1 0 0 0 1 1h46a1 1 0 0 0 1-1v-5h6a2.993 2.993 0 0 0 2.61-4.47 2.744 2.744 0 0 0 .5-.4 2.971 2.971 0 0 0 .89-2.13 2.934 2.934 0 0 0 -.39-1.47 2.744 2.744 0 0 0 .5-.4 2.971 2.971 0 0 0 .89-2.13 2.934 2.934 0 0 0 -.39-1.47 2.744 2.744 0 0 0 .5-.4 3.01 3.01 0 0 0 .88-2.39zm-23.99-35.33 8.59 8.59h-8.59zm10 54.59h-44v-56h32v11a1 1 0 0 0 1 1h11v14h-1a1 1 0 0 0 -1 1v3a5 5 0 0 1 -5 5v-1a1 1 0 0 0 -1-1h-6a1 1 0 0 0 -1 1v17a1 1 0 0 0 1 1h6a1 1 0 0 0 1-1v-.29a12.867 12.867 0 0 0 5.63 1.29h1.37zm-9-21v15h-4v-15zm20.69 2.71a.928.928 0 0 1 -.69.29h-1a1 1 0 0 0 0 2 1 1 0 0 1 1 1 .949.949 0 0 1 -.31.71.928.928 0 0 1 -.69.29h-1a1 1 0 0 0 0 2 1 1 0 0 1 1 1 .949.949 0 0 1 -.31.71.928.928 0 0 1 -.69.29h-1a1 1 0 0 0 0 2 1 1 0 0 1 1 1 .949.949 0 0 1 -.31.71.928.928 0 0 1 -.69.29h-9.37a10.934 10.934 0 0 1 -5.63-1.55v-11.45a7.008 7.008 0 0 0 7-7v-2h1a1 1 0 0 1 1 1v6a1 1 0 0 0 1 1h7.89a1.092 1.092 0 0 1 1.11.91.985.985 0 0 1 -.31.8z" fill="url(#New_Gradient_Swatch_3)"/><path d="m30 36h-21a1 1 0 0 0 0 2h21a1 1 0 0 0 0-2z" fill="url(#New_Gradient_Swatch_3-2)"/><path d="m10 13a1 1 0 0 0 1 1h22a1 1 0 0 0 0-2h-22a1 1 0 0 0 -1 1z" fill="url(#New_Gradient_Swatch_3-3)"/><g fill="url(#New_Gradient_Swatch_3-2)"><path d="m30 42h-21a1 1 0 0 0 0 2h21a1 1 0 0 0 0-2z"/><path d="m30 48h-21a1 1 0 0 0 0 2h21a1 1 0 0 0 0-2z"/><path d="m30 54h-21a1 1 0 0 0 0 2h21a1 1 0 0 0 0-2z"/></g><path d="m8 19v12a1 1 0 0 0 1 1h34a1 1 0 0 0 1-1v-12a1 1 0 0 0 -1-1h-34a1 1 0 0 0 -1 1zm2 1h32v10h-32z" fill="url(#New_Gradient_Swatch_3-7)"/><path d="m8 8h5a1 1 0 0 0 0-2h-6a1 1 0 0 0 -1 1v6a1 1 0 0 0 2 0z" fill="url(#New_Gradient_Swatch_3-8)"/></g></svg>