<svg height="512" viewBox="0 0 64 64" width="512" xmlns="http://www.w3.org/2000/svg" xmlns:xlink="http://www.w3.org/1999/xlink"><linearGradient id="New_Gradient_Swatch_3" gradientUnits="userSpaceOnUse" x1="32.055" x2="32.055" y1="66.807" y2="2.249"><stop offset="0" stop-color="#006df0"/><stop offset="1" stop-color="#00e7f0"/></linearGradient><linearGradient id="New_Gradient_Swatch_3-2" x1="22" x2="22" xlink:href="#New_Gradient_Swatch_3" y1="66.807" y2="2.249"/><linearGradient id="New_Gradient_Swatch_3-4" x1="19" x2="19" xlink:href="#New_Gradient_Swatch_3" y1="66.807" y2="2.249"/><linearGradient id="New_Gradient_Swatch_3-5" x1="16.5" x2="16.5" xlink:href="#New_Gradient_Swatch_3" y1="66.807" y2="2.249"/><linearGradient id="New_Gradient_Swatch_3-6" x1="15" x2="15" xlink:href="#New_Gradient_Swatch_3" y1="66.807" y2="2.249"/><linearGradient id="New_Gradient_Swatch_3-7" x1="25" x2="25" xlink:href="#New_Gradient_Swatch_3" y1="66.807" y2="2.249"/><linearGradient id="New_Gradient_Swatch_3-8" x1="10" x2="10" xlink:href="#New_Gradient_Swatch_3" y1="66.807" y2="2.249"/><g id="edit-folder-document-paper-file"><path d="m60.65 22.35a5.01 5.01 0 0 0 -7.07 0l-1.42 1.42-2.16 2.16v-10.93a1.033 1.033 0 0 0 -.29-.71l-12-12a1.033 1.033 0 0 0 -.71-.29h-34a1 1 0 0 0 -1 1v58a1 1 0 0 0 1 1h46a1 1 0 0 0 1-1v-20.93l6.41-6.4 2.82-2.83 1.42-1.42a5.01 5.01 0 0 0 0-7.07zm-10.61 6.37 1.4 1.4-17.37 17.39h-2.83zm-21.22 22.99.73-2.2h3.94v3.94l-2.2.73a5.961 5.961 0 0 0 -2.47-2.47zm.53 3.12-1.77.59.59-1.77a3.566 3.566 0 0 1 1.18 1.18zm8.65-49.42 8.59 8.59h-8.59zm10 54.59h-44v-56h32v11a1 1 0 0 0 1 1h11v11.93l-19.88 19.88a.983.983 0 0 0 -.24.39l-2.83 8.48a1 1 0 0 0 .95 1.32 1.185 1.185 0 0 0 .32-.05l8.48-2.83a.983.983 0 0 0 .39-.24l12.81-12.81zm-12.51-8.24v-2.83l17.37-17.4 1.42 1.43zm20.21-20.22-4.24-4.24 1.41-1.41 4.24 4.24zm3.53-3.53-.7.71-4.25-4.25.71-.7a3.056 3.056 0 0 1 4.24 0 2.994 2.994 0 0 1 0 4.24z" fill="url(#New_Gradient_Swatch_3)"/><path d="m35 36h-26a1 1 0 0 0 0 2h26a1 1 0 0 0 0-2z" fill="url(#New_Gradient_Swatch_3-2)"/><path d="m10 13a1 1 0 0 0 1 1h22a1 1 0 0 0 0-2h-22a1 1 0 0 0 -1 1z" fill="url(#New_Gradient_Swatch_3-2)"/><path d="m29 42h-20a1 1 0 0 0 0 2h20a1 1 0 0 0 0-2z" fill="url(#New_Gradient_Swatch_3-4)"/><path d="m24 48h-15a1 1 0 0 0 0 2h15a1 1 0 0 0 0-2z" fill="url(#New_Gradient_Swatch_3-5)"/><path d="m21 54h-12a1 1 0 0 0 0 2h12a1 1 0 0 0 0-2z" fill="url(#New_Gradient_Swatch_3-6)"/><path d="m8 19v12a1 1 0 0 0 1 1h32a1 1 0 0 0 1-1v-12a1 1 0 0 0 -1-1h-32a1 1 0 0 0 -1 1zm2 1h30v10h-30z" fill="url(#New_Gradient_Swatch_3-7)"/><path d="m8 8h5a1 1 0 0 0 0-2h-6a1 1 0 0 0 -1 1v6a1 1 0 0 0 2 0z" fill="url(#New_Gradient_Swatch_3-8)"/></g></svg>