<svg height="512" viewBox="0 0 64 64" width="512" xmlns="http://www.w3.org/2000/svg" xmlns:xlink="http://www.w3.org/1999/xlink"><linearGradient id="New_Gradient_Swatch_3" gradientUnits="userSpaceOnUse" x1="33" x2="33" y1="64.026" y2="-2.082"><stop offset="0" stop-color="#006df0"/><stop offset="1" stop-color="#00e7f0"/></linearGradient><linearGradient id="New_Gradient_Swatch_3-2" x1="32" x2="32" xlink:href="#New_Gradient_Swatch_3" y1="64.026" y2="-2.082"/><linearGradient id="New_Gradient_Swatch_3-3" x1="38.5" x2="38.5" xlink:href="#New_Gradient_Swatch_3" y1="64.026" y2="-2.082"/><linearGradient id="New_Gradient_Swatch_3-4" x1="37.5" x2="37.5" xlink:href="#New_Gradient_Swatch_3" y1="64.026" y2="-2.082"/><linearGradient id="New_Gradient_Swatch_3-10" x1="19.5" x2="19.5" xlink:href="#New_Gradient_Swatch_3" y1="64.026" y2="-2.082"/><linearGradient id="New_Gradient_Swatch_3-11" x1="19.499" x2="19.499" xlink:href="#New_Gradient_Swatch_3" y1="64.026" y2="-2.082"/><g id="paper-check-document-format-file"><path d="m28 11h10a1 1 0 0 0 0-2h-10a1 1 0 0 0 0 2z" fill="url(#New_Gradient_Swatch_3)"/><path d="m26 15h12a1 1 0 0 0 0-2h-12a1 1 0 0 0 0 2z" fill="url(#New_Gradient_Swatch_3-2)"/><path d="m49 22h-21a1 1 0 0 0 0 2h21a1 1 0 0 0 0-2z" fill="url(#New_Gradient_Swatch_3-3)"/><path d="m49 26h-23a1 1 0 0 0 0 2h23a1 1 0 0 0 0-2z" fill="url(#New_Gradient_Swatch_3-4)"/><path d="m55.71 14.29-12-12a1.033 1.033 0 0 0 -.71-.29h-34a1 1 0 0 0 -1 1v58a1 1 0 0 0 1 1h46a1 1 0 0 0 1-1v-46a1.033 1.033 0 0 0 -.29-.71zm-11.71-8.88 8.59 8.59h-8.59zm10 54.59h-44v-56h32v11a1 1 0 0 0 1 1h11z" fill="url(#New_Gradient_Swatch_3-2)"/><path d="m49 35h-21a1 1 0 0 0 0 2h21a1 1 0 0 0 0-2z" fill="url(#New_Gradient_Swatch_3-3)"/><path d="m49 39h-23a1 1 0 0 0 0 2h23a1 1 0 0 0 0-2z" fill="url(#New_Gradient_Swatch_3-4)"/><path d="m49 48h-21a1 1 0 0 0 0 2h21a1 1 0 0 0 0-2z" fill="url(#New_Gradient_Swatch_3-3)"/><path d="m49 52h-23a1 1 0 0 0 0 2h23a1 1 0 0 0 0-2z" fill="url(#New_Gradient_Swatch_3-4)"/><path d="m23.232 7.36-4.3 5.159-1.226-1.226a1 1 0 1 0 -1.414 1.414l1.294 1.293h-1.586v-4h4a1 1 0 0 0 0-2h-5a1 1 0 0 0 -1 1v6a1 1 0 0 0 1 1h6a1 1 0 0 0 0-2h-.7l4.466-5.36a1 1 0 1 0 -1.536-1.28z" fill="url(#New_Gradient_Swatch_3-10)"/><path d="m24.77 21.64-4.47 5.36h.7a1 1 0 0 1 0 2h-6a1 1 0 0 1 -1-1v-6a1 1 0 0 1 1-1h5a1 1 0 0 1 0 2h-4v4h1.59l-1.3-1.29a1.014 1.014 0 0 1 0-1.42 1.008 1.008 0 0 1 1.42 0l1.22 1.23 4.3-5.16a1 1 0 0 1 1.54 1.28z" fill="url(#New_Gradient_Swatch_3-11)"/><g fill="url(#New_Gradient_Swatch_3-10)"><path d="m23.232 33.36-4.3 5.159-1.226-1.226a1 1 0 1 0 -1.414 1.414l1.294 1.293h-1.586v-4h4a1 1 0 0 0 0-2h-5a1 1 0 0 0 -1 1v6a1 1 0 0 0 1 1h6a1 1 0 0 0 0-2h-.7l4.466-5.36a1 1 0 1 0 -1.536-1.28z"/><path d="m23.232 47.36-4.3 5.159-1.226-1.226a1 1 0 1 0 -1.414 1.414l1.294 1.293h-1.586v-4h4a1 1 0 0 0 0-2h-5a1 1 0 0 0 -1 1v6a1 1 0 0 0 1 1h6a1 1 0 0 0 0-2h-.7l4.466-5.36a1 1 0 1 0 -1.536-1.28z"/></g></g></svg>