<?xml version="1.0" encoding="UTF-8"?>
<svg xmlns="http://www.w3.org/2000/svg" xmlns:xlink="http://www.w3.org/1999/xlink" viewBox="0 0 64 64" width="512" height="512"><defs><linearGradient id="New_Gradient_Swatch_3" x1="32" y1="66.618" x2="32" y2="2.947" gradientUnits="userSpaceOnUse"><stop offset="0" stop-color="#006df0"/><stop offset="1" stop-color="#00e7f0"/></linearGradient></defs><g id="diagram-flow_chart-man-gear-organization" data-name="diagram-flow chart-man-gear-organization"><path d="M55,50H53V48.97A4.952,4.952,0,0,0,55,45v-.28A1.988,1.988,0,0,0,56,43V41a3.009,3.009,0,0,0-3-3H51V35a1,1,0,0,0-1-1H33V32h2a1,1,0,0,0,1-1V27.25l.42-.18,2.65,2.66a1.047,1.047,0,0,0,1.42,0l4.24-4.24a1.052,1.052,0,0,0,.29-.71,1.033,1.033,0,0,0-.29-.71l-2.66-2.65.18-.42H46a1,1,0,0,0,1-1V14a1,1,0,0,0-1-1H42.25l-.18-.42,2.66-2.65a1.008,1.008,0,0,0,0-1.42L40.49,4.27a1.008,1.008,0,0,0-1.42,0L36.42,6.93,36,6.75V3a1,1,0,0,0-1-1H29a1,1,0,0,0-1,1V6.75l-.42.18L24.93,4.27a1.008,1.008,0,0,0-1.42,0L19.27,8.51a1.008,1.008,0,0,0,0,1.42l2.66,2.65-.18.42H18a1,1,0,0,0-1,1v6a1,1,0,0,0,1,1h3.75l.18.42-2.66,2.65a1.033,1.033,0,0,0-.29.71,1.052,1.052,0,0,0,.29.71l4.24,4.24a1.033,1.033,0,0,0,.71.29,1.052,1.052,0,0,0,.71-.29l2.65-2.66.42.18V31a1,1,0,0,0,1,1h2v2H14a1,1,0,0,0-1,1v3H7a1,1,0,0,0-1,1v2a4,4,0,0,0,3,3.86V45a4.952,4.952,0,0,0,2,3.97V50H9a5,5,0,0,0-5,5v6a1,1,0,0,0,1,1H59a1,1,0,0,0,1-1V55A5,5,0,0,0,55,50Zm-5-2a3.009,3.009,0,0,1-3-3h6A3.009,3.009,0,0,1,50,48Zm2.68,3.97a4,4,0,0,1-5.36,0A2.008,2.008,0,0,0,49,50v-.1a5.05,5.05,0,0,0,2,0V50A2.008,2.008,0,0,0,52.68,51.97ZM53,40a1,1,0,0,1,1,1v2H46a2.006,2.006,0,0,1-2-2V40ZM30,30V26.54a1,1,0,0,0-.69-.95,7.906,7.906,0,0,1-1.45-.61,1.016,1.016,0,0,0-1.19.17l-2.45,2.46-2.83-2.83,2.46-2.45a1.016,1.016,0,0,0,.17-1.19,7.906,7.906,0,0,1-.61-1.45,1,1,0,0,0-.95-.69H19V15h3.46a1,1,0,0,0,.95-.69,7.906,7.906,0,0,1,.61-1.45,1.016,1.016,0,0,0-.17-1.19L21.39,9.22l2.83-2.83,2.45,2.46a1.016,1.016,0,0,0,1.19.17,7.906,7.906,0,0,1,1.45-.61A1,1,0,0,0,30,7.46V4h4V7.46a1,1,0,0,0,.69.95,7.906,7.906,0,0,1,1.45.61,1.016,1.016,0,0,0,1.19-.17l2.45-2.46,2.83,2.83-2.46,2.45a1.016,1.016,0,0,0-.17,1.19,7.906,7.906,0,0,1,.61,1.45,1,1,0,0,0,.95.69H45v4H41.54a1,1,0,0,0-.95.69,7.906,7.906,0,0,1-.61,1.45,1.016,1.016,0,0,0,.17,1.19l2.46,2.45-2.83,2.83-2.45-2.46a1.016,1.016,0,0,0-1.19-.17,7.906,7.906,0,0,1-1.45.61,1,1,0,0,0-.69.95V30Zm5,10a1,1,0,0,1,1,1v2H28a2.006,2.006,0,0,1-2-2V40Zm-.32,11.97a4,4,0,0,1-5.36,0A2.008,2.008,0,0,0,31,50v-.1a5.05,5.05,0,0,0,2,0V50A2.008,2.008,0,0,0,34.68,51.97ZM32,48a3.009,3.009,0,0,1-3-3h6A3.009,3.009,0,0,1,32,48ZM10,43a2.006,2.006,0,0,1-2-2V40h9a1,1,0,0,1,1,1v2Zm6.68,8.97a4,4,0,0,1-5.36,0A2.008,2.008,0,0,0,13,50v-.1a5.05,5.05,0,0,0,2,0V50A2.008,2.008,0,0,0,16.68,51.97ZM14,48a3.009,3.009,0,0,1-3-3h6A3.009,3.009,0,0,1,14,48Zm8,12H19V58a1,1,0,0,0-2,0v2H11V58a1,1,0,0,0-2,0v2H6V55a2.991,2.991,0,0,1,2.82-2.98,5.992,5.992,0,0,0,10.36,0A2.991,2.991,0,0,1,22,55Zm1-7.97A4.994,4.994,0,0,0,19,50H17V48.97A4.952,4.952,0,0,0,19,45v-.28A1.988,1.988,0,0,0,20,43V41a3.009,3.009,0,0,0-3-3H15V36H31v2H25a1,1,0,0,0-1,1v2a4,4,0,0,0,3,3.86V45a4.952,4.952,0,0,0,2,3.97V50H27A4.994,4.994,0,0,0,23,52.03ZM40,60H37V58a1,1,0,0,0-2,0v2H29V58a1,1,0,0,0-2,0v2H24V55a2.991,2.991,0,0,1,2.82-2.98,5.992,5.992,0,0,0,10.36,0A2.991,2.991,0,0,1,40,55Zm1-7.97A4.994,4.994,0,0,0,37,50H35V48.97A4.952,4.952,0,0,0,37,45v-.28A1.988,1.988,0,0,0,38,43V41a3.009,3.009,0,0,0-3-3H33V36H49v2H43a1,1,0,0,0-1,1v2a4,4,0,0,0,3,3.86V45a4.952,4.952,0,0,0,2,3.97V50H45A4.994,4.994,0,0,0,41,52.03ZM58,60H55V58a1,1,0,0,0-2,0v2H47V58a1,1,0,0,0-2,0v2H42V55a2.991,2.991,0,0,1,2.82-2.98,5.992,5.992,0,0,0,10.36,0A2.991,2.991,0,0,1,58,55Z" style="fill:url(#New_Gradient_Swatch_3)"/><path d="M38,17a6,6,0,1,0-6,6A6.006,6.006,0,0,0,38,17ZM28,17a4,4,0,1,1,4,4A4,4,0,0,1,28,17Z" style="fill:url(#New_Gradient_Swatch_3)"/></g></svg>
