<?xml version="1.0" encoding="UTF-8"?>
<svg xmlns="http://www.w3.org/2000/svg" xmlns:xlink="http://www.w3.org/1999/xlink" viewBox="0 0 64 64" width="512" height="512"><defs><linearGradient id="New_Gradient_Swatch_3" x1="32" y1="65.683" x2="32" y2="3.762" gradientUnits="userSpaceOnUse"><stop offset="0" stop-color="#006df0"/><stop offset="1" stop-color="#00e7f0"/></linearGradient></defs><g id="cloud-network-database-folder-user"><path d="M53,44.06V35.61a12,12,0,1,0-6.67-23.04,15,15,0,0,0-28.66,0A12,12,0,1,0,11,35.61v8.45a9,9,0,1,0,2,0V35.95c.33.03.66.05,1,.05H31v8.06a9,9,0,1,0,2,0V36H50c.34,0,.67-.02,1-.05v8.11a9,9,0,1,0,2,0ZM16,58.74a6.979,6.979,0,0,1-8,0V58a3.009,3.009,0,0,1,3-3h2a3.009,3.009,0,0,1,3,3ZM10,51a2,2,0,1,1,2,2A2.006,2.006,0,0,1,10,51Zm9,2a7.023,7.023,0,0,1-1.15,3.84,5.021,5.021,0,0,0-2.74-3.36A3.934,3.934,0,0,0,16,51a4,4,0,0,0-8,0,3.934,3.934,0,0,0,.89,2.48,5.021,5.021,0,0,0-2.74,3.36A7,7,0,1,1,19,53ZM12,21a1,1,0,0,0-1,1V33.54a10,10,0,1,1,6.96-18.73,1,1,0,0,0,1.36-.7,13.007,13.007,0,0,1,25.36,0,1,1,0,0,0,1.36.7A10,10,0,1,1,53,33.54V22a1,1,0,0,0-1-1H41V19a1,1,0,0,0-1-1H39V16a1,1,0,0,0-1-1H29.41l-.7-.71A1.033,1.033,0,0,0,28,14H24a1,1,0,0,0-1,1v6Zm25-4v1H32.41l-1-1ZM14,34c-.34,0-.67-.02-1-.05V23H23v6a1,1,0,0,0,1,1h7v4ZM36,58.74a6.979,6.979,0,0,1-8,0V58a3.009,3.009,0,0,1,3-3h2a3.009,3.009,0,0,1,3,3ZM30,51a2,2,0,1,1,2,2A2.006,2.006,0,0,1,30,51Zm9,2a7.023,7.023,0,0,1-1.15,3.84,5.021,5.021,0,0,0-2.74-3.36A3.934,3.934,0,0,0,36,51a4,4,0,0,0-8,0,3.934,3.934,0,0,0,.89,2.48,5.021,5.021,0,0,0-2.74,3.36A7,7,0,1,1,39,53ZM25,28V16h2.59l3.7,3.71A1.033,1.033,0,0,0,32,20h7v8Zm25,6H33V30h7a1,1,0,0,0,1-1V23H51V33.95C50.67,33.98,50.34,34,50,34Zm6,24.74a6.979,6.979,0,0,1-8,0V58a3.009,3.009,0,0,1,3-3h2a3.009,3.009,0,0,1,3,3ZM50,51a2,2,0,1,1,2,2A2.006,2.006,0,0,1,50,51Zm7.85,5.84a5.021,5.021,0,0,0-2.74-3.36A3.934,3.934,0,0,0,56,51a4,4,0,0,0-8,0,3.934,3.934,0,0,0,.89,2.48,5.021,5.021,0,0,0-2.74,3.36,7,7,0,1,1,11.7,0Z" style="fill:url(#New_Gradient_Swatch_3)"/></g></svg>
