<?xml version="1.0" encoding="UTF-8"?>
<svg xmlns="http://www.w3.org/2000/svg" xmlns:xlink="http://www.w3.org/1999/xlink" viewBox="0 0 64 64" width="512" height="512"><defs><linearGradient id="New_Gradient_Swatch_3" x1="32" y1="59.803" x2="32" y2="6.192" gradientUnits="userSpaceOnUse"><stop offset="0" stop-color="#006df0"/><stop offset="1" stop-color="#00e7f0"/></linearGradient><linearGradient id="New_Gradient_Swatch_3-2" x1="12" y1="59.803" x2="12" y2="6.192" xlink:href="#New_Gradient_Swatch_3"/><linearGradient id="New_Gradient_Swatch_3-3" x1="52" y1="59.803" x2="52" y2="6.192" xlink:href="#New_Gradient_Swatch_3"/><linearGradient id="New_Gradient_Swatch_3-4" x1="17.102" y1="59.803" x2="17.102" y2="6.192" xlink:href="#New_Gradient_Swatch_3"/><linearGradient id="New_Gradient_Swatch_3-6" x1="46.898" y1="59.803" x2="46.898" y2="6.192" xlink:href="#New_Gradient_Swatch_3"/></defs><g id="man-business-organization-diagram-teamwork"><path d="M42,23a5.006,5.006,0,0,0-5-5H35V16.974A4.977,4.977,0,0,0,37,13v-.278A1.993,1.993,0,0,0,38,11V9a3,3,0,0,0-3-3H25a1,1,0,0,0-1,1V9a4,4,0,0,0,3,3.858V13a4.977,4.977,0,0,0,2,3.974V18H27a5.006,5.006,0,0,0-5,5v6a1,1,0,0,0,1,1H41a1,1,0,0,0,1-1ZM32,16a3,3,0,0,1-3-3h6A3,3,0,0,1,32,16ZM26,9V8h9a1,1,0,0,1,1,1v2H28A2,2,0,0,1,26,9Zm6,9a5,5,0,0,0,1-.1V18a2,2,0,0,0,1.676,1.967,3.983,3.983,0,0,1-5.352,0A2,2,0,0,0,31,18v-.1A5,5,0,0,0,32,18Zm8,10H37V26a1,1,0,0,0-2,0v2H29V26a1,1,0,0,0-2,0v2H24V23a3,3,0,0,1,2.823-2.982,5.985,5.985,0,0,0,10.354,0A3,3,0,0,1,40,23Z" style="fill:url(#New_Gradient_Swatch_3)"/><path d="M17,46H15V44.974A4.977,4.977,0,0,0,17,41v-.278A1.993,1.993,0,0,0,18,39V37a3,3,0,0,0-3-3H5a1,1,0,0,0-1,1v2a4,4,0,0,0,3,3.858V41a4.977,4.977,0,0,0,2,3.974V46H7a5.006,5.006,0,0,0-5,5v6a1,1,0,0,0,1,1H21a1,1,0,0,0,1-1V51A5.006,5.006,0,0,0,17,46Zm-5-2a3,3,0,0,1-3-3h6A3,3,0,0,1,12,44ZM6,37V36h9a1,1,0,0,1,1,1v2H8A2,2,0,0,1,6,37Zm6,9a5,5,0,0,0,1-.1V46a2,2,0,0,0,1.676,1.967,3.983,3.983,0,0,1-5.352,0A2,2,0,0,0,11,46v-.1A5,5,0,0,0,12,46Zm8,10H17V54a1,1,0,0,0-2,0v2H9V54a1,1,0,0,0-2,0v2H4V51a3,3,0,0,1,2.823-2.982,5.985,5.985,0,0,0,10.354,0A3,3,0,0,1,20,51Z" style="fill:url(#New_Gradient_Swatch_3-2)"/><path d="M57,46H55V44.974A4.977,4.977,0,0,0,57,41v-.278A1.993,1.993,0,0,0,58,39V37a3,3,0,0,0-3-3H45a1,1,0,0,0-1,1v2a4,4,0,0,0,3,3.858V41a4.977,4.977,0,0,0,2,3.974V46H47a5.006,5.006,0,0,0-5,5v6a1,1,0,0,0,1,1H61a1,1,0,0,0,1-1V51A5.006,5.006,0,0,0,57,46Zm-5-2a3,3,0,0,1-3-3h6A3,3,0,0,1,52,44Zm-6-7V36h9a1,1,0,0,1,1,1v2H48A2,2,0,0,1,46,37Zm6,9a5,5,0,0,0,1-.1V46a2,2,0,0,0,1.676,1.967,3.983,3.983,0,0,1-5.352,0A2,2,0,0,0,51,46v-.1A5,5,0,0,0,52,46Zm8,10H57V54a1,1,0,0,0-2,0v2H49V54a1,1,0,0,0-2,0v2H44V51a3,3,0,0,1,2.823-2.982,5.985,5.985,0,0,0,10.354,0A3,3,0,0,1,60,51Z" style="fill:url(#New_Gradient_Swatch_3-3)"/><path d="M10.068,31.991A1.047,1.047,0,0,0,10.2,32a1,1,0,0,0,.99-.865,21,21,0,0,1,13.169-16.7,1,1,0,1,0-.726-1.864,23,23,0,0,0-14.425,18.3A1,1,0,0,0,10.068,31.991Z" style="fill:url(#New_Gradient_Swatch_3-4)"/><path d="M38.682,53.915a21.211,21.211,0,0,1-13.364,0,1,1,0,1,0-.636,1.9,23.115,23.115,0,0,0,14.636,0,1,1,0,1,0-.636-1.9Z" style="fill:url(#New_Gradient_Swatch_3)"/><path d="M39.637,14.432a21,21,0,0,1,13.169,16.7A1,1,0,0,0,53.8,32a1.047,1.047,0,0,0,.136-.009,1,1,0,0,0,.856-1.126,23,23,0,0,0-14.425-18.3,1,1,0,1,0-.726,1.864Z" style="fill:url(#New_Gradient_Swatch_3-6)"/></g></svg>
