<svg height="512" viewBox="0 0 64 64" width="512" xmlns="http://www.w3.org/2000/svg" xmlns:xlink="http://www.w3.org/1999/xlink"><linearGradient id="New_Gradient_Swatch_3" gradientUnits="userSpaceOnUse" x1="29" x2="29" y1="61.743" y2="-3.079"><stop offset="0" stop-color="#006df0"/><stop offset="1" stop-color="#00e7f0"/></linearGradient><linearGradient id="New_Gradient_Swatch_3-2" x1="19" x2="19" xlink:href="#New_Gradient_Swatch_3" y1="61.743" y2="-3.079"/><linearGradient id="New_Gradient_Swatch_3-3" x1="16" x2="16" xlink:href="#New_Gradient_Swatch_3" y1="61.743" y2="-3.079"/><linearGradient id="New_Gradient_Swatch_3-4" x1="13" x2="13" xlink:href="#New_Gradient_Swatch_3" y1="61.743" y2="-3.079"/><linearGradient id="New_Gradient_Swatch_3-5" x1="10" x2="10" xlink:href="#New_Gradient_Swatch_3" y1="61.743" y2="-3.079"/><linearGradient id="New_Gradient_Swatch_3-6" x1="7" x2="7" xlink:href="#New_Gradient_Swatch_3" y1="61.743" y2="-3.079"/><linearGradient id="New_Gradient_Swatch_3-33" x1="32" x2="32" xlink:href="#New_Gradient_Swatch_3" y1="61.743" y2="-3.079"/><linearGradient id="New_Gradient_Swatch_3-34" x1="48.415" x2="48.415" xlink:href="#New_Gradient_Swatch_3" y1="61.743" y2="-3.079"/><linearGradient id="New_Gradient_Swatch_3-35" x1="48" x2="48" xlink:href="#New_Gradient_Swatch_3" y1="61.743" y2="-3.079"/><g id="server-management-config-network-big_data" data-name="server-management-config-network-big data"><path d="m36 21v-4a1 1 0 0 0 -1-1h-12a1 1 0 0 0 -1 1v4a1 1 0 0 0 1 1h12a1 1 0 0 0 1-1zm-2-1h-10v-2h10z" fill="url(#New_Gradient_Swatch_3)"/><path d="m18 20h2v2h-2z" fill="url(#New_Gradient_Swatch_3-2)"/><path d="m15 20h2v2h-2z" fill="url(#New_Gradient_Swatch_3-3)"/><path d="m12 20h2v2h-2z" fill="url(#New_Gradient_Swatch_3-4)"/><path d="m9 20h2v2h-2z" fill="url(#New_Gradient_Swatch_3-5)"/><path d="m6 20h2v2h-2z" fill="url(#New_Gradient_Swatch_3-6)"/><path d="m18 16h2v2h-2z" fill="url(#New_Gradient_Swatch_3-2)"/><path d="m15 16h2v2h-2z" fill="url(#New_Gradient_Swatch_3-3)"/><path d="m12 16h2v2h-2z" fill="url(#New_Gradient_Swatch_3-4)"/><path d="m9 16h2v2h-2z" fill="url(#New_Gradient_Swatch_3-5)"/><path d="m6 16h2v2h-2z" fill="url(#New_Gradient_Swatch_3-6)"/><path d="m18 32h2v2h-2z" fill="url(#New_Gradient_Swatch_3-2)"/><path d="m15 32h2v2h-2z" fill="url(#New_Gradient_Swatch_3-3)"/><path d="m12 32h2v2h-2z" fill="url(#New_Gradient_Swatch_3-4)"/><path d="m9 32h2v2h-2z" fill="url(#New_Gradient_Swatch_3-5)"/><path d="m6 32h2v2h-2z" fill="url(#New_Gradient_Swatch_3-6)"/><path d="m18 28h2v2h-2z" fill="url(#New_Gradient_Swatch_3-2)"/><path d="m15 28h2v2h-2z" fill="url(#New_Gradient_Swatch_3-3)"/><path d="m12 28h2v2h-2z" fill="url(#New_Gradient_Swatch_3-4)"/><path d="m9 28h2v2h-2z" fill="url(#New_Gradient_Swatch_3-5)"/><path d="m6 28h2v2h-2z" fill="url(#New_Gradient_Swatch_3-6)"/><path d="m18 44h2v2h-2z" fill="url(#New_Gradient_Swatch_3-2)"/><path d="m15 44h2v2h-2z" fill="url(#New_Gradient_Swatch_3-3)"/><path d="m12 44h2v2h-2z" fill="url(#New_Gradient_Swatch_3-4)"/><path d="m9 44h2v2h-2z" fill="url(#New_Gradient_Swatch_3-5)"/><path d="m6 44h2v2h-2z" fill="url(#New_Gradient_Swatch_3-6)"/><path d="m18 40h2v2h-2z" fill="url(#New_Gradient_Swatch_3-2)"/><path d="m15 40h2v2h-2z" fill="url(#New_Gradient_Swatch_3-3)"/><path d="m12 40h2v2h-2z" fill="url(#New_Gradient_Swatch_3-4)"/><path d="m9 40h2v2h-2z" fill="url(#New_Gradient_Swatch_3-5)"/><path d="m6 40h2v2h-2z" fill="url(#New_Gradient_Swatch_3-6)"/><path d="m35 40h-12a1 1 0 0 0 -1 1v4a1 1 0 0 0 1 1h12a1 1 0 0 0 1-1v-4a1 1 0 0 0 -1-1zm-1 4h-10v-2h10z" fill="url(#New_Gradient_Swatch_3)"/><path d="m61 57h-36.142a4.009 4.009 0 0 0 -2.858-2.86v-4.14h13a5 5 0 0 0 5-5v-2.53a14 14 0 1 0 0-22.94v-2.65a5.005 5.005 0 0 0 -.46-2.1l-4.56-9.88a5.017 5.017 0 0 0 -4.54-2.9h-18.88a5.017 5.017 0 0 0 -4.54 2.9l-4.56 9.89a4.928 4.928 0 0 0 -.46 2.09v4.12a4.994 4.994 0 0 0 2.03 4 4.994 4.994 0 0 0 -2.03 4v4a4.994 4.994 0 0 0 2.03 4 4.994 4.994 0 0 0 -2.03 4v4a5 5 0 0 0 5 5h13v4.14a4.009 4.009 0 0 0 -2.858 2.86h-14.142a1 1 0 0 0 0 2h14.141a3.982 3.982 0 0 0 7.718 0h36.141a1 1 0 0 0 0-2zm-13-38a12 12 0 1 1 -12 12 12.01 12.01 0 0 1 12-12zm-39.16-13.26a3 3 0 0 1 2.72-1.74h18.88a3 3 0 0 1 2.72 1.74l2.95 6.4a4.562 4.562 0 0 0 -1.11-.14h-28a4.562 4.562 0 0 0 -1.11.14zm-4.84 15.26v-4a3.009 3.009 0 0 1 3-3h28a3.009 3.009 0 0 1 3 3v4a1.942 1.942 0 0 1 -.02.24 14.011 14.011 0 0 0 -1.96 2.56 2.894 2.894 0 0 1 -1.02.2h-28a3.009 3.009 0 0 1 -3-3zm0 12v-4a3.009 3.009 0 0 1 3-3h27.94a13.6 13.6 0 0 0 -.61 2h-11.33a1 1 0 0 0 -1 1v4a1 1 0 0 0 1 1h11.33a13.6 13.6 0 0 0 .61 2h-27.94a3.009 3.009 0 0 1 -3-3zm30-3v2h-10v-2zm-27 18a3.009 3.009 0 0 1 -3-3v-4a3.009 3.009 0 0 1 3-3h28a2.894 2.894 0 0 1 1.02.2 14.011 14.011 0 0 0 1.96 2.56 1.942 1.942 0 0 1 .02.24v4a3.009 3.009 0 0 1 -3 3zm14 12a2 2 0 1 1 2-2 2.006 2.006 0 0 1 -2 2z" fill="url(#New_Gradient_Swatch_3-33)"/><path d="m46.293 30.707a1 1 0 0 0 1.414 0l5.657-5.657a1 1 0 0 0 -1.414-1.414l-4.95 4.95-2.121-2.122a1 1 0 1 0 -1.414 1.414z" fill="url(#New_Gradient_Swatch_3-34)"/><path d="m54 33h-12a1 1 0 0 0 -1 1v4a1 1 0 0 0 1 1h12a1 1 0 0 0 1-1v-4a1 1 0 0 0 -1-1zm-11 2h2v2h-2zm4 0h2v2h-2zm6 2h-2v-2h2z" fill="url(#New_Gradient_Swatch_3-35)"/></g></svg>