<?xml version="1.0" encoding="iso-8859-1"?>
<!-- Generator: Adobe Illustrator 19.0.0, SVG Export Plug-In . SVG Version: 6.00 Build 0)  -->
<svg version="1.1" id="Capa_1" xmlns="http://www.w3.org/2000/svg" xmlns:xlink="http://www.w3.org/1999/xlink" x="0px" y="0px"
	 viewBox="0 0 480 480" style="enable-background:new 0 0 480 480;" xml:space="preserve">
<linearGradient id="SVGID_1_" gradientUnits="userSpaceOnUse" x1="-10.8753" y1="553.395" x2="-10.8753" y2="623.501" gradientTransform="matrix(8 0 0 -8 455.0026 4941)">
	<stop  offset="0" style="stop-color:#006DF0"/>
	<stop  offset="1" style="stop-color:#00E7F0"/>
</linearGradient>
<path style="fill:url(#SVGID_1_);" d="M456,338.48V280c0.05-6.334-2.473-12.417-6.992-16.856c-6.805-6.716-16.899-8.85-25.84-5.464
	c-1.061-4.005-3.19-7.647-6.16-10.536c-7.689-7.485-19.34-9.129-28.8-4.064c-0.912-1.431-1.985-2.751-3.2-3.936
	c-6.569-6.507-16.251-8.743-25.008-5.776V176c-0.065-13.312-10.91-24.051-24.222-23.986c-0.623,0.003-1.245,0.03-1.866,0.082
	c-12.602,1.388-22.087,12.123-21.912,24.8V272h-8c-13.255,0-24,10.745-24,24v42.728c0.03,26.89,6.487,53.383,18.832,77.272H296
	c-4.418,0-8,3.582-8,8v48c0,4.418,3.582,8,8,8h144c4.418,0,8-3.582,8-8v-48c0-4.418-3.582-8-8-8h-2.952l0.656-1.288
	C449.7,391.089,455.968,364.974,456,338.48z M432,464H304v-32h128V464z M316.856,416l-3.728-7.2
	c-11.227-21.653-17.1-45.682-17.128-70.072V296c0-4.418,3.582-8,8-8h8v40c0,4.418,3.582,8,8,8s8-3.582,8-8V176.896
	c-0.174-4.375,2.943-8.192,7.264-8.896c2.383-0.186,4.727,0.693,6.4,2.4c1.521,1.463,2.367,3.49,2.336,5.6v104c0,4.418,3.582,8,8,8
	s8-3.582,8-8v-24c0-4.418,3.582-8,8-8c2.157-0.004,4.219,0.885,5.696,2.456c1.495,1.455,2.328,3.458,2.304,5.544v40
	c0,4.418,3.582,8,8,8s8-3.582,8-8v-32c0-4.418,3.582-8,8-8c2.157-0.004,4.219,0.885,5.696,2.456
	c1.495,1.455,2.328,3.458,2.304,5.544v48c0,4.418,3.582,8,8,8s8-3.582,8-8v-32c0-4.418,3.582-8,8-8
	c2.157-0.004,4.219,0.885,5.696,2.456c1.495,1.455,2.328,3.458,2.304,5.544v58.48c-0.025,23.97-5.695,47.598-16.552,68.968
	L419.096,416H316.856z"/>
<g>
	
		<linearGradient id="SVGID_2_" gradientUnits="userSpaceOnUse" x1="-5.8754" y1="553.395" x2="-5.8754" y2="623.501" gradientTransform="matrix(8 0 0 -8 455.0026 4941)">
		<stop  offset="0" style="stop-color:#006DF0"/>
		<stop  offset="1" style="stop-color:#00E7F0"/>
	</linearGradient>
	<path style="fill:url(#SVGID_2_);" d="M416,456h-16c-4.418,0-8-3.582-8-8s3.582-8,8-8h16c4.418,0,8,3.582,8,8S420.418,456,416,456z
		"/>
	
		<linearGradient id="SVGID_3_" gradientUnits="userSpaceOnUse" x1="-30.8754" y1="553.395" x2="-30.8754" y2="623.501" gradientTransform="matrix(8 0 0 -8 455.0026 4941)">
		<stop  offset="0" style="stop-color:#006DF0"/>
		<stop  offset="1" style="stop-color:#00E7F0"/>
	</linearGradient>
	<path style="fill:url(#SVGID_3_);" d="M352,0H64c-22.08,0.026-39.974,17.92-40,40v400c0.026,22.08,17.92,39.974,40,40h202.664
		c4.418,0,8-3.582,8-8s-3.582-8-8-8H64c-13.255,0-24-10.745-24-24v-24h200c4.418,0,8-3.582,8-8s-3.582-8-8-8H40V64h336v144
		c0,4.418,3.582,8,8,8s8-3.582,8-8V40C391.973,17.92,374.08,0.026,352,0z M376,48H40v-8c0-13.255,10.745-24,24-24h288
		c13.255,0,24,10.745,24,24V48z"/>
	
		<linearGradient id="SVGID_4_" gradientUnits="userSpaceOnUse" x1="-44.8754" y1="553.395" x2="-44.8754" y2="623.501" gradientTransform="matrix(8 0 0 -8 455.0026 4941)">
		<stop  offset="0" style="stop-color:#006DF0"/>
		<stop  offset="1" style="stop-color:#00E7F0"/>
	</linearGradient>
	<path style="fill:url(#SVGID_4_);" d="M120,176H72c-4.418,0-8-3.582-8-8v-48c0-4.418,3.582-8,8-8h48c4.418,0,8,3.582,8,8v48
		C128,172.418,124.418,176,120,176z M80,160h32v-32H80V160z"/>
	
		<linearGradient id="SVGID_5_" gradientUnits="userSpaceOnUse" x1="-44.8754" y1="553.395" x2="-44.8754" y2="623.501" gradientTransform="matrix(8 0 0 -8 455.0026 4941)">
		<stop  offset="0" style="stop-color:#006DF0"/>
		<stop  offset="1" style="stop-color:#00E7F0"/>
	</linearGradient>
	<path style="fill:url(#SVGID_5_);" d="M120,256H72c-4.418,0-8-3.582-8-8v-48c0-4.418,3.582-8,8-8h48c4.418,0,8,3.582,8,8v48
		C128,252.418,124.418,256,120,256z M80,240h32v-32H80V240z"/>
	
		<linearGradient id="SVGID_6_" gradientUnits="userSpaceOnUse" x1="-44.8754" y1="553.395" x2="-44.8754" y2="623.501" gradientTransform="matrix(8 0 0 -8 455.0026 4941)">
		<stop  offset="0" style="stop-color:#006DF0"/>
		<stop  offset="1" style="stop-color:#00E7F0"/>
	</linearGradient>
	<path style="fill:url(#SVGID_6_);" d="M120,336H72c-4.418,0-8-3.582-8-8v-48c0-4.418,3.582-8,8-8h48c4.418,0,8,3.582,8,8v48
		C128,332.418,124.418,336,120,336z M80,320h32v-32H80V320z"/>
	
		<linearGradient id="SVGID_7_" gradientUnits="userSpaceOnUse" x1="-34.8754" y1="553.395" x2="-34.8754" y2="623.501" gradientTransform="matrix(8 0 0 -8 455.0026 4941)">
		<stop  offset="0" style="stop-color:#006DF0"/>
		<stop  offset="1" style="stop-color:#00E7F0"/>
	</linearGradient>
	<path style="fill:url(#SVGID_7_);" d="M200,336h-48c-4.418,0-8-3.582-8-8v-48c0-4.418,3.582-8,8-8h48c4.418,0,8,3.582,8,8v48
		C208,332.418,204.418,336,200,336z M160,320h32v-32h-32V320z"/>
	
		<linearGradient id="SVGID_8_" gradientUnits="userSpaceOnUse" x1="-34.8754" y1="553.395" x2="-34.8754" y2="623.501" gradientTransform="matrix(8 0 0 -8 455.0026 4941)">
		<stop  offset="0" style="stop-color:#006DF0"/>
		<stop  offset="1" style="stop-color:#00E7F0"/>
	</linearGradient>
	<path style="fill:url(#SVGID_8_);" d="M200,256h-48c-4.418,0-8-3.582-8-8v-48c0-4.418,3.582-8,8-8h48c4.418,0,8,3.582,8,8v48
		C208,252.418,204.418,256,200,256z M160,240h32v-32h-32V240z"/>
	
		<linearGradient id="SVGID_9_" gradientUnits="userSpaceOnUse" x1="-34.8754" y1="553.395" x2="-34.8754" y2="623.501" gradientTransform="matrix(8 0 0 -8 455.0026 4941)">
		<stop  offset="0" style="stop-color:#006DF0"/>
		<stop  offset="1" style="stop-color:#00E7F0"/>
	</linearGradient>
	<path style="fill:url(#SVGID_9_);" d="M200,176h-48c-4.418,0-8-3.582-8-8v-48c0-4.418,3.582-8,8-8h48c4.418,0,8,3.582,8,8v48
		C208,172.418,204.418,176,200,176z M160,160h32v-32h-32V160z"/>
	
		<linearGradient id="SVGID_10_" gradientUnits="userSpaceOnUse" x1="-24.8754" y1="553.395" x2="-24.8754" y2="623.501" gradientTransform="matrix(8 0 0 -8 455.0026 4941)">
		<stop  offset="0" style="stop-color:#006DF0"/>
		<stop  offset="1" style="stop-color:#00E7F0"/>
	</linearGradient>
	<path style="fill:url(#SVGID_10_);" d="M280,176h-48c-4.418,0-8-3.582-8-8v-48c0-4.418,3.582-8,8-8h48c4.418,0,8,3.582,8,8v48
		C288,172.418,284.418,176,280,176z M240,160h32v-32h-32V160z"/>
	
		<linearGradient id="SVGID_11_" gradientUnits="userSpaceOnUse" x1="-24.8754" y1="553.395" x2="-24.8754" y2="623.501" gradientTransform="matrix(8 0 0 -8 455.0026 4941)">
		<stop  offset="0" style="stop-color:#006DF0"/>
		<stop  offset="1" style="stop-color:#00E7F0"/>
	</linearGradient>
	<path style="fill:url(#SVGID_11_);" d="M280,256h-48c-4.418,0-8-3.582-8-8v-48c0-4.418,3.582-8,8-8h48c4.418,0,8,3.582,8,8v48
		C288,252.418,284.418,256,280,256z M240,240h32v-32h-32V240z"/>
</g>
<g>
</g>
<g>
</g>
<g>
</g>
<g>
</g>
<g>
</g>
<g>
</g>
<g>
</g>
<g>
</g>
<g>
</g>
<g>
</g>
<g>
</g>
<g>
</g>
<g>
</g>
<g>
</g>
<g>
</g>
</svg>
