<svg height="512" viewBox="0 0 64 64" width="512" xmlns="http://www.w3.org/2000/svg" xmlns:xlink="http://www.w3.org/1999/xlink"><linearGradient id="New_Gradient_Swatch_3" gradientUnits="userSpaceOnUse" x1="19" x2="19" y1="72.441" y2="1.264"><stop offset="0" stop-color="#006df0"/><stop offset="1" stop-color="#00e7f0"/></linearGradient><linearGradient id="New_Gradient_Swatch_3-2" x1="37" x2="37" xlink:href="#New_Gradient_Swatch_3" y1="72.441" y2="1.264"/><linearGradient id="New_Gradient_Swatch_3-7" x1="32" x2="32" xlink:href="#New_Gradient_Swatch_3" y1="72.441" y2="1.264"/><linearGradient id="New_Gradient_Swatch_3-8" x1="20.5" x2="20.5" xlink:href="#New_Gradient_Swatch_3" y1="72.441" y2="1.264"/><linearGradient id="New_Gradient_Swatch_3-9" x1="33" x2="33" xlink:href="#New_Gradient_Swatch_3" y1="72.441" y2="1.264"/><linearGradient id="New_Gradient_Swatch_3-11" x1="38" x2="38" xlink:href="#New_Gradient_Swatch_3" y1="72.441" y2="1.264"/><g id="File"><path d="m22 42h-6a1 1 0 0 1 -1-1v-6a1 1 0 0 1 1-1h6a1 1 0 0 1 1 1v6a1 1 0 0 1 -1 1zm-5-2h4v-4h-4z" fill="url(#New_Gradient_Swatch_3)"/><path d="m48 37h-22a1 1 0 0 1 0-2h22a1 1 0 0 1 0 2z" fill="url(#New_Gradient_Swatch_3-2)"/><path d="m48 41h-22a1 1 0 0 1 0-2h22a1 1 0 0 1 0 2z" fill="url(#New_Gradient_Swatch_3-2)"/><path d="m22 55h-6a1 1 0 0 1 -1-1v-6a1 1 0 0 1 1-1h6a1 1 0 0 1 1 1v6a1 1 0 0 1 -1 1zm-5-2h4v-4h-4z" fill="url(#New_Gradient_Swatch_3)"/><path d="m48 50h-22a1 1 0 0 1 0-2h22a1 1 0 0 1 0 2z" fill="url(#New_Gradient_Swatch_3-2)"/><path d="m48 54h-22a1 1 0 0 1 0-2h22a1 1 0 0 1 0 2z" fill="url(#New_Gradient_Swatch_3-2)"/><path d="m54.707 12.293-10-10a1 1 0 0 0 -.707-.293h-34a1 1 0 0 0 -1 1v58a1 1 0 0 0 1 1h44a1 1 0 0 0 1-1v-48a1 1 0 0 0 -.293-.707zm-9.707-6.879 6.586 6.586h-5.586a1 1 0 0 1 -1-1zm-34 54.586v-56h32v7a3 3 0 0 0 3 3h7v46z" fill="url(#New_Gradient_Swatch_3-7)"/><path d="m16 16h6a1 1 0 0 0 0-2h-.7l4.466-5.36a1 1 0 1 0 -1.536-1.28l-4.3 5.159-1.226-1.226a1 1 0 1 0 -1.414 1.414l1.296 1.293h-1.586v-4h4a1 1 0 0 0 0-2h-5a1 1 0 0 0 -1 1v6a1 1 0 0 0 1 1z" fill="url(#New_Gradient_Swatch_3-8)"/><path d="m28 11h10a1 1 0 0 0 0-2h-10a1 1 0 0 0 0 2z" fill="url(#New_Gradient_Swatch_3-9)"/><path d="m25 14a1 1 0 0 0 1 1h12a1 1 0 0 0 0-2h-12a1 1 0 0 0 -1 1z" fill="url(#New_Gradient_Swatch_3-7)"/><path d="m48 22h-20a1 1 0 0 0 0 2h20a1 1 0 0 0 0-2z" fill="url(#New_Gradient_Swatch_3-11)"/><path d="m48 26h-22a1 1 0 0 0 0 2h22a1 1 0 0 0 0-2z" fill="url(#New_Gradient_Swatch_3-2)"/><path d="m22 27h-.7l4.466-5.36a1 1 0 0 0 -1.536-1.28l-4.3 5.159-1.226-1.226a1 1 0 1 0 -1.414 1.414l1.296 1.293h-1.586v-4h4a1 1 0 0 0 0-2h-5a1 1 0 0 0 -1 1v6a1 1 0 0 0 1 1h6a1 1 0 0 0 0-2z" fill="url(#New_Gradient_Swatch_3-8)"/></g></svg>