<?xml version="1.0" encoding="UTF-8"?>
<svg xmlns="http://www.w3.org/2000/svg" xmlns:xlink="http://www.w3.org/1999/xlink" width="512" height="512" viewBox="0 0 512 512"><defs><linearGradient id="a" data-name="New Gradient Swatch 1" x1="21.584" y1="528.283" x2="522.504" y2="27.363" gradientUnits="userSpaceOnUse"><stop offset="0" stop-color="#003f8a"/><stop offset="0.518" stop-color="#00d7df"/><stop offset="1" stop-color="#006df0"/></linearGradient><linearGradient id="b" x1="-125.349" y1="381.349" x2="375.57" y2="-119.57" xlink:href="#a"/><linearGradient id="c" x1="-145.349" y1="361.349" x2="355.57" y2="-139.57" xlink:href="#a"/><linearGradient id="d" x1="-101.349" y1="405.349" x2="399.57" y2="-95.57" xlink:href="#a"/></defs><g><path d="M414.82,379.81,352,277.73V100a28.031,28.031,0,0,0-28-28H124a28.031,28.031,0,0,0-28,28V428a28.031,28.031,0,0,0,28,28H312v7a7.972,7.972,0,0,0,2.18,5.48L328,483.17V496a8,8,0,0,0,8,8h72a8,8,0,0,0,8-8V384A8.037,8.037,0,0,0,414.82,379.81ZM261.75,88l-4,16h-67.5l-4-16ZM120,354v85.3a12.014,12.014,0,0,1-8-11.3V100a12.01,12.01,0,0,1,12-12h45.75l6.49,25.94A8,8,0,0,0,184,120h80a8,8,0,0,0,7.76-6.06L278.25,88H324a12.01,12.01,0,0,1,12,12V326.33a24.139,24.139,0,0,0-18.75-5.95A58.107,58.107,0,0,0,270,296H256V285.25A48.086,48.086,0,0,0,288,240V176a48.051,48.051,0,0,0-48-48H208a48.051,48.051,0,0,0-48,48v64a48.086,48.086,0,0,0,32,45.25V296H178A58.067,58.067,0,0,0,120,354Zm88-82a32.036,32.036,0,0,1-32-32V208.75c2.03.1,4.36.17,6.99.17,18.21,0,50.22-3.14,89.01-20.31V240a32.036,32.036,0,0,1-32,32Zm32,16v8H208v-8Zm-64-95.31V176a32.036,32.036,0,0,1,32-32h32a32.062,32.062,0,0,1,31.64,27.17C226.68,192.48,190.41,193.41,176,192.69ZM312,440H288V360a8,8,0,0,0-16,0v80H176V360a8,8,0,0,0-16,0v80H136V354a42.046,42.046,0,0,1,42-42h92a42.031,42.031,0,0,1,32.65,15.63,24,24,0,0,0-3.5,28.46L312,380.11Zm88,48H344v-8a8.008,8.008,0,0,0-2.17-5.48L328,459.83V428.97a4,4,0,0,1,1.17-2.83l12.49-12.48a8.011,8.011,0,0,0,1.4-9.43l-16.02-29.92c0-.02-.01-.03-.01-.04L313.2,348.44c-.04-.08-.08-.15-.13-.23A8.014,8.014,0,0,1,316,337.29a7.091,7.091,0,0,1,.78-.39.01.01,0,0,1,.01-.01,8,8,0,0,1,10.14,3.33l32,55.42a8,8,0,1,0,13.86-8l-20.79-36V308.26l48,78Z" fill="url(#a)"/><path d="M224,56a8,8,0,0,0,8-8V16a8,8,0,0,0-16,0V48A8,8,0,0,0,224,56Z" fill="url(#b)"/><path d="M186.343,53.657a8,8,0,1,0,11.314-11.314l-24-24a8,8,0,0,0-11.314,11.314Z" fill="url(#c)"/><path d="M256,56a7.974,7.974,0,0,0,5.657-2.343l24-24a8,8,0,0,0-11.314-11.314l-24,24A8,8,0,0,0,256,56Z" fill="url(#d)"/></g></svg>
